G04 #@! TF.GenerationSoftware,KiCad,Pcbnew,6.0.6*
G04 #@! TF.CreationDate,2022-07-14T17:33:28+02:00*
G04 #@! TF.ProjectId,3D_power_meter,33445f70-6f77-4657-925f-6d657465722e,rev?*
G04 #@! TF.SameCoordinates,Original*
G04 #@! TF.FileFunction,Copper,L1,Top*
G04 #@! TF.FilePolarity,Positive*
%FSLAX46Y46*%
G04 Gerber Fmt 4.6, Leading zero omitted, Abs format (unit mm)*
G04 Created by KiCad (PCBNEW 6.0.6) date 2022-07-14 17:33:28*
%MOMM*%
%LPD*%
G01*
G04 APERTURE LIST*
G04 Aperture macros list*
%AMRoundRect*
0 Rectangle with rounded corners*
0 $1 Rounding radius*
0 $2 $3 $4 $5 $6 $7 $8 $9 X,Y pos of 4 corners*
0 Add a 4 corners polygon primitive as box body*
4,1,4,$2,$3,$4,$5,$6,$7,$8,$9,$2,$3,0*
0 Add four circle primitives for the rounded corners*
1,1,$1+$1,$2,$3*
1,1,$1+$1,$4,$5*
1,1,$1+$1,$6,$7*
1,1,$1+$1,$8,$9*
0 Add four rect primitives between the rounded corners*
20,1,$1+$1,$2,$3,$4,$5,0*
20,1,$1+$1,$4,$5,$6,$7,0*
20,1,$1+$1,$6,$7,$8,$9,0*
20,1,$1+$1,$8,$9,$2,$3,0*%
G04 Aperture macros list end*
G04 #@! TA.AperFunction,ComponentPad*
%ADD10R,1.700000X1.700000*%
G04 #@! TD*
G04 #@! TA.AperFunction,ComponentPad*
%ADD11O,1.700000X1.700000*%
G04 #@! TD*
G04 #@! TA.AperFunction,SMDPad,CuDef*
%ADD12RoundRect,0.237500X-0.300000X-0.237500X0.300000X-0.237500X0.300000X0.237500X-0.300000X0.237500X0*%
G04 #@! TD*
G04 #@! TA.AperFunction,SMDPad,CuDef*
%ADD13RoundRect,0.237500X-0.237500X0.300000X-0.237500X-0.300000X0.237500X-0.300000X0.237500X0.300000X0*%
G04 #@! TD*
G04 #@! TA.AperFunction,SMDPad,CuDef*
%ADD14RoundRect,0.250000X-0.650000X0.412500X-0.650000X-0.412500X0.650000X-0.412500X0.650000X0.412500X0*%
G04 #@! TD*
G04 #@! TA.AperFunction,ComponentPad*
%ADD15C,3.000000*%
G04 #@! TD*
G04 #@! TA.AperFunction,ComponentPad*
%ADD16R,2.600000X2.600000*%
G04 #@! TD*
G04 #@! TA.AperFunction,ComponentPad*
%ADD17C,2.600000*%
G04 #@! TD*
G04 #@! TA.AperFunction,SMDPad,CuDef*
%ADD18R,0.650000X1.560000*%
G04 #@! TD*
G04 #@! TA.AperFunction,SMDPad,CuDef*
%ADD19RoundRect,0.150000X0.825000X0.150000X-0.825000X0.150000X-0.825000X-0.150000X0.825000X-0.150000X0*%
G04 #@! TD*
G04 #@! TA.AperFunction,ViaPad*
%ADD20C,0.800000*%
G04 #@! TD*
G04 #@! TA.AperFunction,Conductor*
%ADD21C,0.500000*%
G04 #@! TD*
G04 #@! TA.AperFunction,Conductor*
%ADD22C,0.600000*%
G04 #@! TD*
G04 #@! TA.AperFunction,Conductor*
%ADD23C,0.800000*%
G04 #@! TD*
G04 APERTURE END LIST*
D10*
X165100000Y-118000000D03*
D11*
X162560000Y-118000000D03*
D12*
X172787500Y-101600000D03*
X174512500Y-101600000D03*
D13*
X169575000Y-109450000D03*
X169575000Y-111175000D03*
D14*
X171575000Y-107937500D03*
X171575000Y-111062500D03*
D10*
X169000000Y-118000000D03*
D11*
X171540000Y-118000000D03*
D10*
X175425000Y-118000000D03*
D11*
X177965000Y-118000000D03*
D15*
X199550000Y-110200000D03*
X185350000Y-116200000D03*
X185350000Y-104200000D03*
X197550000Y-104200000D03*
X197550000Y-116200000D03*
D16*
X196645000Y-93880000D03*
D17*
X196645000Y-98960000D03*
D18*
X167125000Y-109400000D03*
X166175000Y-109400000D03*
X165225000Y-109400000D03*
X165225000Y-112100000D03*
X167125000Y-112100000D03*
D19*
X177735000Y-99905000D03*
X177735000Y-98635000D03*
X177735000Y-97365000D03*
X177735000Y-96095000D03*
X172785000Y-96095000D03*
X172785000Y-97365000D03*
X172785000Y-98635000D03*
X172785000Y-99905000D03*
D20*
X171625000Y-113125000D03*
X174500000Y-103050000D03*
X166175000Y-107550000D03*
X170700000Y-96100000D03*
D21*
X167150000Y-109425000D02*
X167125000Y-109400000D01*
X169600000Y-109475000D02*
X169575000Y-109450000D01*
D22*
X169575000Y-111175000D02*
X171462500Y-111175000D01*
X171575000Y-111062500D02*
X171575000Y-113075000D01*
X174512500Y-101600000D02*
X174512500Y-103037500D01*
X174512500Y-103037500D02*
X174500000Y-103050000D01*
X171462500Y-111175000D02*
X171575000Y-111062500D01*
X172785000Y-96095000D02*
X170705000Y-96095000D01*
X166175000Y-109400000D02*
X166175000Y-107550000D01*
D23*
X170705000Y-96095000D02*
X170700000Y-96100000D01*
D22*
X171575000Y-113075000D02*
X171625000Y-113125000D01*
X167125000Y-113950000D02*
X167125000Y-112100000D01*
X165100000Y-118000000D02*
X165100000Y-115975000D01*
X165100000Y-115975000D02*
X167125000Y-113950000D01*
X162560000Y-116440000D02*
X165225000Y-113775000D01*
X165225000Y-113775000D02*
X165225000Y-112100000D01*
X162560000Y-118000000D02*
X162560000Y-116440000D01*
X165225000Y-104995000D02*
X165225000Y-109400000D01*
X171585000Y-98635000D02*
X165225000Y-104995000D01*
X171585000Y-98635000D02*
X172785000Y-98635000D01*
G04 #@! TA.AperFunction,Conductor*
G36*
X175389811Y-90928502D02*
G01*
X175436304Y-90982158D01*
X175447687Y-91035354D01*
X175382774Y-100612826D01*
X175362311Y-100680810D01*
X175308341Y-100726938D01*
X175238000Y-100736565D01*
X175190661Y-100719232D01*
X175136150Y-100685631D01*
X175136148Y-100685630D01*
X175129920Y-100681791D01*
X174964809Y-100627026D01*
X174957973Y-100626326D01*
X174957970Y-100626325D01*
X174906474Y-100621049D01*
X174862072Y-100616500D01*
X174263289Y-100616500D01*
X174195168Y-100596498D01*
X174148675Y-100542842D01*
X174138571Y-100472568D01*
X174154835Y-100426361D01*
X174214648Y-100325221D01*
X174220893Y-100310790D01*
X174259939Y-100176395D01*
X174259899Y-100162294D01*
X174252630Y-100159000D01*
X173057115Y-100159000D01*
X173041876Y-100163475D01*
X173040671Y-100164865D01*
X173039000Y-100172548D01*
X173039000Y-100568126D01*
X173041500Y-100585514D01*
X173041500Y-102564885D01*
X173045975Y-102580124D01*
X173047365Y-102581329D01*
X173055048Y-102583000D01*
X173133766Y-102583000D01*
X173140282Y-102582663D01*
X173234132Y-102572925D01*
X173247528Y-102570032D01*
X173398953Y-102519512D01*
X173412115Y-102513347D01*
X173511698Y-102451724D01*
X173580150Y-102432887D01*
X173647920Y-102454049D01*
X173693490Y-102508490D01*
X173704000Y-102558869D01*
X173704000Y-102577952D01*
X173687119Y-102640952D01*
X173665473Y-102678444D01*
X173606458Y-102860072D01*
X173586496Y-103050000D01*
X173606458Y-103239928D01*
X173665473Y-103421556D01*
X173760960Y-103586944D01*
X173888747Y-103728866D01*
X174043248Y-103841118D01*
X174049276Y-103843802D01*
X174049278Y-103843803D01*
X174211681Y-103916109D01*
X174217712Y-103918794D01*
X174311113Y-103938647D01*
X174398056Y-103957128D01*
X174398061Y-103957128D01*
X174404513Y-103958500D01*
X174595487Y-103958500D01*
X174601939Y-103957128D01*
X174601944Y-103957128D01*
X174688887Y-103938647D01*
X174782288Y-103918794D01*
X174788319Y-103916109D01*
X174950722Y-103843803D01*
X174950724Y-103843802D01*
X174956752Y-103841118D01*
X175111253Y-103728866D01*
X175141674Y-103695080D01*
X175202120Y-103657840D01*
X175273103Y-103659192D01*
X175332088Y-103698705D01*
X175360346Y-103763836D01*
X175361306Y-103780233D01*
X175321373Y-109672115D01*
X175321153Y-109704610D01*
X175310529Y-109754400D01*
X175286517Y-109809102D01*
X175207756Y-110085594D01*
X175167249Y-110370216D01*
X175167227Y-110374505D01*
X175167226Y-110374512D01*
X175165833Y-110640457D01*
X175165743Y-110657703D01*
X175166302Y-110661947D01*
X175166302Y-110661951D01*
X175175199Y-110729530D01*
X175203268Y-110942734D01*
X175204401Y-110946874D01*
X175204401Y-110946876D01*
X175209197Y-110964406D01*
X175279129Y-111220036D01*
X175296681Y-111261186D01*
X175300108Y-111269220D01*
X175310207Y-111319508D01*
X175274984Y-116516354D01*
X175254521Y-116584338D01*
X175200551Y-116630466D01*
X175148987Y-116641500D01*
X174526866Y-116641500D01*
X174464684Y-116648255D01*
X174328295Y-116699385D01*
X174211739Y-116786739D01*
X174124385Y-116903295D01*
X174073255Y-117039684D01*
X174066500Y-117101866D01*
X174066500Y-118898134D01*
X174073255Y-118960316D01*
X174124385Y-119096705D01*
X174211739Y-119213261D01*
X174328295Y-119300615D01*
X174464684Y-119351745D01*
X174526866Y-119358500D01*
X175128864Y-119358500D01*
X175196985Y-119378502D01*
X175243478Y-119432158D01*
X175254861Y-119485354D01*
X175252365Y-119853790D01*
X175251269Y-120015500D01*
X175251263Y-120016354D01*
X175230800Y-120084337D01*
X175176830Y-120130466D01*
X175125266Y-120141500D01*
X161034500Y-120141500D01*
X160966379Y-120121498D01*
X160919886Y-120067842D01*
X160908500Y-120015500D01*
X160908500Y-117966695D01*
X161197251Y-117966695D01*
X161210110Y-118189715D01*
X161211247Y-118194761D01*
X161211248Y-118194767D01*
X161224597Y-118254000D01*
X161259222Y-118407639D01*
X161343266Y-118614616D01*
X161459987Y-118805088D01*
X161606250Y-118973938D01*
X161778126Y-119116632D01*
X161971000Y-119229338D01*
X162179692Y-119309030D01*
X162184760Y-119310061D01*
X162184763Y-119310062D01*
X162279862Y-119329410D01*
X162398597Y-119353567D01*
X162403772Y-119353757D01*
X162403774Y-119353757D01*
X162616673Y-119361564D01*
X162616677Y-119361564D01*
X162621837Y-119361753D01*
X162626957Y-119361097D01*
X162626959Y-119361097D01*
X162838288Y-119334025D01*
X162838289Y-119334025D01*
X162843416Y-119333368D01*
X162848366Y-119331883D01*
X163052429Y-119270661D01*
X163052434Y-119270659D01*
X163057384Y-119269174D01*
X163257994Y-119170896D01*
X163439860Y-119041173D01*
X163548091Y-118933319D01*
X163610462Y-118899404D01*
X163681268Y-118904592D01*
X163738030Y-118947238D01*
X163755012Y-118978341D01*
X163799385Y-119096705D01*
X163886739Y-119213261D01*
X164003295Y-119300615D01*
X164139684Y-119351745D01*
X164201866Y-119358500D01*
X165998134Y-119358500D01*
X166060316Y-119351745D01*
X166196705Y-119300615D01*
X166313261Y-119213261D01*
X166400615Y-119096705D01*
X166451745Y-118960316D01*
X166458500Y-118898134D01*
X167641500Y-118898134D01*
X167648255Y-118960316D01*
X167699385Y-119096705D01*
X167786739Y-119213261D01*
X167903295Y-119300615D01*
X168039684Y-119351745D01*
X168101866Y-119358500D01*
X169898134Y-119358500D01*
X169960316Y-119351745D01*
X170096705Y-119300615D01*
X170213261Y-119213261D01*
X170300615Y-119096705D01*
X170344798Y-118978848D01*
X170387440Y-118922084D01*
X170454001Y-118897384D01*
X170523350Y-118912592D01*
X170558017Y-118940580D01*
X170583218Y-118969673D01*
X170590580Y-118976883D01*
X170754434Y-119112916D01*
X170762881Y-119118831D01*
X170946756Y-119226279D01*
X170956042Y-119230729D01*
X171155001Y-119306703D01*
X171164899Y-119309579D01*
X171268250Y-119330606D01*
X171282299Y-119329410D01*
X171286000Y-119319065D01*
X171286000Y-119318517D01*
X171794000Y-119318517D01*
X171798064Y-119332359D01*
X171811478Y-119334393D01*
X171818184Y-119333534D01*
X171828262Y-119331392D01*
X172032255Y-119270191D01*
X172041842Y-119266433D01*
X172233095Y-119172739D01*
X172241945Y-119167464D01*
X172415328Y-119043792D01*
X172423200Y-119037139D01*
X172574052Y-118886812D01*
X172580730Y-118878965D01*
X172705003Y-118706020D01*
X172710313Y-118697183D01*
X172804670Y-118506267D01*
X172808469Y-118496672D01*
X172870377Y-118292910D01*
X172872555Y-118282837D01*
X172873986Y-118271962D01*
X172871775Y-118257778D01*
X172858617Y-118254000D01*
X171812115Y-118254000D01*
X171796876Y-118258475D01*
X171795671Y-118259865D01*
X171794000Y-118267548D01*
X171794000Y-119318517D01*
X171286000Y-119318517D01*
X171286000Y-117727885D01*
X171794000Y-117727885D01*
X171798475Y-117743124D01*
X171799865Y-117744329D01*
X171807548Y-117746000D01*
X172858344Y-117746000D01*
X172871875Y-117742027D01*
X172873180Y-117732947D01*
X172831214Y-117565875D01*
X172827894Y-117556124D01*
X172742972Y-117360814D01*
X172738105Y-117351739D01*
X172622426Y-117172926D01*
X172616136Y-117164757D01*
X172472806Y-117007240D01*
X172465273Y-117000215D01*
X172298139Y-116868222D01*
X172289552Y-116862517D01*
X172103117Y-116759599D01*
X172093705Y-116755369D01*
X171892959Y-116684280D01*
X171882988Y-116681646D01*
X171811837Y-116668972D01*
X171798540Y-116670432D01*
X171794000Y-116684989D01*
X171794000Y-117727885D01*
X171286000Y-117727885D01*
X171286000Y-116683102D01*
X171282082Y-116669758D01*
X171267806Y-116667771D01*
X171229324Y-116673660D01*
X171219288Y-116676051D01*
X171016868Y-116742212D01*
X171007359Y-116746209D01*
X170818463Y-116844542D01*
X170809738Y-116850036D01*
X170639433Y-116977905D01*
X170631726Y-116984748D01*
X170554478Y-117065584D01*
X170492954Y-117101014D01*
X170422042Y-117097557D01*
X170364255Y-117056311D01*
X170345402Y-117022763D01*
X170303767Y-116911703D01*
X170300615Y-116903295D01*
X170213261Y-116786739D01*
X170096705Y-116699385D01*
X169960316Y-116648255D01*
X169898134Y-116641500D01*
X168101866Y-116641500D01*
X168039684Y-116648255D01*
X167903295Y-116699385D01*
X167786739Y-116786739D01*
X167699385Y-116903295D01*
X167648255Y-117039684D01*
X167641500Y-117101866D01*
X167641500Y-118898134D01*
X166458500Y-118898134D01*
X166458500Y-117101866D01*
X166451745Y-117039684D01*
X166400615Y-116903295D01*
X166313261Y-116786739D01*
X166196705Y-116699385D01*
X166060316Y-116648255D01*
X166033086Y-116645297D01*
X166020892Y-116643972D01*
X165955330Y-116616730D01*
X165914904Y-116558366D01*
X165908500Y-116518709D01*
X165908500Y-116362082D01*
X165928502Y-116293961D01*
X165945405Y-116272987D01*
X167690158Y-114528234D01*
X167691095Y-114527306D01*
X167750475Y-114469157D01*
X167750476Y-114469156D01*
X167755507Y-114464229D01*
X167778998Y-114427779D01*
X167786417Y-114417454D01*
X167813476Y-114383557D01*
X167816540Y-114377218D01*
X167816543Y-114377214D01*
X167828074Y-114353362D01*
X167835601Y-114339949D01*
X167849947Y-114317687D01*
X167849948Y-114317684D01*
X167853765Y-114311762D01*
X167856176Y-114305139D01*
X167868592Y-114271027D01*
X167873553Y-114259283D01*
X167889352Y-114226601D01*
X167889353Y-114226599D01*
X167892421Y-114220252D01*
X167899966Y-114187573D01*
X167904334Y-114172825D01*
X167915803Y-114141315D01*
X167916685Y-114134329D01*
X167916687Y-114134323D01*
X167921238Y-114098299D01*
X167923474Y-114085747D01*
X167931638Y-114050386D01*
X167931638Y-114050383D01*
X167933224Y-114043515D01*
X167933366Y-114002944D01*
X167933395Y-114002062D01*
X167933500Y-114001231D01*
X167933500Y-113964428D01*
X167933857Y-113862130D01*
X167933589Y-113860930D01*
X167933500Y-113859293D01*
X167933500Y-113061826D01*
X167941518Y-113017596D01*
X167948971Y-112997715D01*
X167951745Y-112990316D01*
X167958500Y-112928134D01*
X167958500Y-111524572D01*
X168591500Y-111524572D01*
X168602293Y-111628593D01*
X168657346Y-111793607D01*
X168748884Y-111941531D01*
X168754066Y-111946704D01*
X168866816Y-112059258D01*
X168866821Y-112059262D01*
X168871997Y-112064429D01*
X169020080Y-112155709D01*
X169185191Y-112210474D01*
X169192027Y-112211174D01*
X169192030Y-112211175D01*
X169243526Y-112216451D01*
X169287928Y-112221000D01*
X169862072Y-112221000D01*
X169865318Y-112220663D01*
X169865322Y-112220663D01*
X169959235Y-112210919D01*
X169959239Y-112210918D01*
X169966093Y-112210207D01*
X169972629Y-112208026D01*
X169972631Y-112208026D01*
X170108507Y-112162694D01*
X170131107Y-112155154D01*
X170279031Y-112063616D01*
X170281996Y-112060646D01*
X170346616Y-112034491D01*
X170416380Y-112047662D01*
X170440375Y-112065098D01*
X170440771Y-112064596D01*
X170446517Y-112069134D01*
X170451697Y-112074305D01*
X170457927Y-112078145D01*
X170457928Y-112078146D01*
X170595090Y-112162694D01*
X170602262Y-112167115D01*
X170659949Y-112186249D01*
X170680167Y-112192955D01*
X170738527Y-112233386D01*
X170765764Y-112298950D01*
X170766500Y-112312548D01*
X170766500Y-112807268D01*
X170760333Y-112846205D01*
X170731458Y-112935072D01*
X170730768Y-112941635D01*
X170730767Y-112941642D01*
X170718136Y-113061826D01*
X170711496Y-113125000D01*
X170731458Y-113314928D01*
X170790473Y-113496556D01*
X170885960Y-113661944D01*
X170890378Y-113666851D01*
X170890379Y-113666852D01*
X171000747Y-113789428D01*
X171013747Y-113803866D01*
X171168248Y-113916118D01*
X171174276Y-113918802D01*
X171174278Y-113918803D01*
X171277098Y-113964581D01*
X171342712Y-113993794D01*
X171436112Y-114013647D01*
X171523056Y-114032128D01*
X171523061Y-114032128D01*
X171529513Y-114033500D01*
X171720487Y-114033500D01*
X171726939Y-114032128D01*
X171726944Y-114032128D01*
X171813888Y-114013647D01*
X171907288Y-113993794D01*
X171972902Y-113964581D01*
X172075722Y-113918803D01*
X172075724Y-113918802D01*
X172081752Y-113916118D01*
X172236253Y-113803866D01*
X172249253Y-113789428D01*
X172359621Y-113666852D01*
X172359622Y-113666851D01*
X172364040Y-113661944D01*
X172459527Y-113496556D01*
X172518542Y-113314928D01*
X172538504Y-113125000D01*
X172531864Y-113061826D01*
X172519232Y-112941635D01*
X172519232Y-112941633D01*
X172518542Y-112935072D01*
X172459527Y-112753444D01*
X172400381Y-112651000D01*
X172383500Y-112588001D01*
X172383500Y-112312538D01*
X172403502Y-112244417D01*
X172457158Y-112197924D01*
X172469624Y-112193014D01*
X172530653Y-112172653D01*
X172548946Y-112166550D01*
X172699348Y-112073478D01*
X172711677Y-112061128D01*
X172819134Y-111953483D01*
X172824305Y-111948303D01*
X172917115Y-111797738D01*
X172972797Y-111629861D01*
X172983500Y-111525400D01*
X172983500Y-110599600D01*
X172978176Y-110548285D01*
X172973238Y-110500692D01*
X172973237Y-110500688D01*
X172972526Y-110493834D01*
X172952528Y-110433891D01*
X172918868Y-110333002D01*
X172916550Y-110326054D01*
X172823478Y-110175652D01*
X172698303Y-110050695D01*
X172547738Y-109957885D01*
X172467995Y-109931436D01*
X172386389Y-109904368D01*
X172386387Y-109904368D01*
X172379861Y-109902203D01*
X172373025Y-109901503D01*
X172373022Y-109901502D01*
X172325488Y-109896632D01*
X172275400Y-109891500D01*
X170874600Y-109891500D01*
X170871354Y-109891837D01*
X170871350Y-109891837D01*
X170775692Y-109901762D01*
X170775688Y-109901763D01*
X170768834Y-109902474D01*
X170762300Y-109904654D01*
X170762295Y-109904655D01*
X170723876Y-109917473D01*
X170652926Y-109920057D01*
X170591842Y-109883873D01*
X170560018Y-109820409D01*
X170558000Y-109797949D01*
X170558000Y-109722115D01*
X170553525Y-109706876D01*
X170552135Y-109705671D01*
X170544452Y-109704000D01*
X168610115Y-109704000D01*
X168594876Y-109708475D01*
X168593671Y-109709865D01*
X168592000Y-109717548D01*
X168592000Y-109796266D01*
X168592337Y-109802782D01*
X168602075Y-109896632D01*
X168604968Y-109910028D01*
X168655488Y-110061453D01*
X168661653Y-110074615D01*
X168745426Y-110209992D01*
X168754464Y-110221394D01*
X168756139Y-110223067D01*
X168756919Y-110224493D01*
X168759007Y-110227127D01*
X168758556Y-110227484D01*
X168790219Y-110285349D01*
X168785216Y-110356169D01*
X168756299Y-110401254D01*
X168753476Y-110404083D01*
X168748071Y-110409497D01*
X168744231Y-110415727D01*
X168744230Y-110415728D01*
X168662521Y-110548285D01*
X168656791Y-110557580D01*
X168602026Y-110722691D01*
X168601326Y-110729527D01*
X168601325Y-110729530D01*
X168597982Y-110762158D01*
X168591500Y-110825428D01*
X168591500Y-111524572D01*
X167958500Y-111524572D01*
X167958500Y-111271866D01*
X167951745Y-111209684D01*
X167900615Y-111073295D01*
X167813261Y-110956739D01*
X167696705Y-110869385D01*
X167688297Y-110866233D01*
X167680425Y-110861923D01*
X167681624Y-110859732D01*
X167635487Y-110825076D01*
X167610786Y-110758515D01*
X167625992Y-110689165D01*
X167676277Y-110639046D01*
X167684271Y-110635396D01*
X167703649Y-110624786D01*
X167805724Y-110548285D01*
X167818285Y-110535724D01*
X167894786Y-110433649D01*
X167903324Y-110418054D01*
X167948478Y-110297606D01*
X167952105Y-110282351D01*
X167957631Y-110231486D01*
X167958000Y-110224672D01*
X167958000Y-109672115D01*
X167953525Y-109656876D01*
X167952135Y-109655671D01*
X167944452Y-109654000D01*
X167134500Y-109654000D01*
X167066379Y-109633998D01*
X167019886Y-109580342D01*
X167008500Y-109528000D01*
X167008500Y-109177885D01*
X168592000Y-109177885D01*
X168596475Y-109193124D01*
X168597865Y-109194329D01*
X168605548Y-109196000D01*
X169302885Y-109196000D01*
X169318124Y-109191525D01*
X169319329Y-109190135D01*
X169321000Y-109182452D01*
X169321000Y-109177885D01*
X169829000Y-109177885D01*
X169833475Y-109193124D01*
X169834865Y-109194329D01*
X169842548Y-109196000D01*
X170539885Y-109196000D01*
X170555124Y-109191525D01*
X170556329Y-109190135D01*
X170559773Y-109174301D01*
X170593798Y-109111989D01*
X170656109Y-109077963D01*
X170722560Y-109081490D01*
X170763703Y-109095136D01*
X170777086Y-109098005D01*
X170871438Y-109107672D01*
X170877854Y-109108000D01*
X171302885Y-109108000D01*
X171318124Y-109103525D01*
X171319329Y-109102135D01*
X171321000Y-109094452D01*
X171321000Y-109089884D01*
X171829000Y-109089884D01*
X171833475Y-109105123D01*
X171834865Y-109106328D01*
X171842548Y-109107999D01*
X172272095Y-109107999D01*
X172278614Y-109107662D01*
X172374206Y-109097743D01*
X172387600Y-109094851D01*
X172541784Y-109043412D01*
X172554962Y-109037239D01*
X172692807Y-108951937D01*
X172704208Y-108942901D01*
X172818739Y-108828171D01*
X172827751Y-108816760D01*
X172912816Y-108678757D01*
X172918963Y-108665576D01*
X172970138Y-108511290D01*
X172973005Y-108497914D01*
X172982672Y-108403562D01*
X172983000Y-108397146D01*
X172983000Y-108209615D01*
X172978525Y-108194376D01*
X172977135Y-108193171D01*
X172969452Y-108191500D01*
X171847115Y-108191500D01*
X171831876Y-108195975D01*
X171830671Y-108197365D01*
X171829000Y-108205048D01*
X171829000Y-109089884D01*
X171321000Y-109089884D01*
X171321000Y-108209615D01*
X171316525Y-108194376D01*
X171315135Y-108193171D01*
X171307452Y-108191500D01*
X170185116Y-108191500D01*
X170169877Y-108195975D01*
X170168672Y-108197365D01*
X170167001Y-108205048D01*
X170167001Y-108307576D01*
X170146999Y-108375697D01*
X170093343Y-108422190D01*
X170023069Y-108432294D01*
X170001333Y-108427169D01*
X169971231Y-108417184D01*
X169957868Y-108414319D01*
X169865230Y-108404828D01*
X169858815Y-108404500D01*
X169847115Y-108404500D01*
X169831876Y-108408975D01*
X169830671Y-108410365D01*
X169829000Y-108418048D01*
X169829000Y-109177885D01*
X169321000Y-109177885D01*
X169321000Y-108422615D01*
X169316525Y-108407376D01*
X169315135Y-108406171D01*
X169307452Y-108404500D01*
X169291234Y-108404500D01*
X169284718Y-108404837D01*
X169190868Y-108414575D01*
X169177472Y-108417468D01*
X169026047Y-108467988D01*
X169012885Y-108474153D01*
X168877508Y-108557926D01*
X168866110Y-108566960D01*
X168753637Y-108679629D01*
X168744625Y-108691040D01*
X168661088Y-108826563D01*
X168654944Y-108839741D01*
X168604685Y-108991266D01*
X168601819Y-109004632D01*
X168592328Y-109097270D01*
X168592000Y-109103685D01*
X168592000Y-109177885D01*
X167008500Y-109177885D01*
X167008500Y-109127885D01*
X167379000Y-109127885D01*
X167383475Y-109143124D01*
X167384865Y-109144329D01*
X167392548Y-109146000D01*
X167939884Y-109146000D01*
X167955123Y-109141525D01*
X167956328Y-109140135D01*
X167957999Y-109132452D01*
X167957999Y-108575331D01*
X167957629Y-108568510D01*
X167952105Y-108517648D01*
X167948479Y-108502396D01*
X167903324Y-108381946D01*
X167894786Y-108366351D01*
X167818285Y-108264276D01*
X167805724Y-108251715D01*
X167703649Y-108175214D01*
X167688054Y-108166676D01*
X167567606Y-108121522D01*
X167552351Y-108117895D01*
X167501486Y-108112369D01*
X167494672Y-108112000D01*
X167397115Y-108112000D01*
X167381876Y-108116475D01*
X167380671Y-108117865D01*
X167379000Y-108125548D01*
X167379000Y-109127885D01*
X167008500Y-109127885D01*
X167008500Y-108571866D01*
X167001745Y-108509684D01*
X166991518Y-108482404D01*
X166983500Y-108438174D01*
X166983500Y-108000397D01*
X167000380Y-107937398D01*
X167009527Y-107921556D01*
X167068542Y-107739928D01*
X167074649Y-107681829D01*
X167076377Y-107665385D01*
X170167000Y-107665385D01*
X170171475Y-107680624D01*
X170172865Y-107681829D01*
X170180548Y-107683500D01*
X171302885Y-107683500D01*
X171318124Y-107679025D01*
X171319329Y-107677635D01*
X171321000Y-107669952D01*
X171321000Y-107665385D01*
X171829000Y-107665385D01*
X171833475Y-107680624D01*
X171834865Y-107681829D01*
X171842548Y-107683500D01*
X172964884Y-107683500D01*
X172980123Y-107679025D01*
X172981328Y-107677635D01*
X172982999Y-107669952D01*
X172982999Y-107477905D01*
X172982662Y-107471386D01*
X172972743Y-107375794D01*
X172969851Y-107362400D01*
X172918412Y-107208216D01*
X172912239Y-107195038D01*
X172826937Y-107057193D01*
X172817901Y-107045792D01*
X172703171Y-106931261D01*
X172691760Y-106922249D01*
X172553757Y-106837184D01*
X172540576Y-106831037D01*
X172386290Y-106779862D01*
X172372914Y-106776995D01*
X172278562Y-106767328D01*
X172272145Y-106767000D01*
X171847115Y-106767000D01*
X171831876Y-106771475D01*
X171830671Y-106772865D01*
X171829000Y-106780548D01*
X171829000Y-107665385D01*
X171321000Y-107665385D01*
X171321000Y-106785116D01*
X171316525Y-106769877D01*
X171315135Y-106768672D01*
X171307452Y-106767001D01*
X170877905Y-106767001D01*
X170871386Y-106767338D01*
X170775794Y-106777257D01*
X170762400Y-106780149D01*
X170608216Y-106831588D01*
X170595038Y-106837761D01*
X170457193Y-106923063D01*
X170445792Y-106932099D01*
X170331261Y-107046829D01*
X170322249Y-107058240D01*
X170237184Y-107196243D01*
X170231037Y-107209424D01*
X170179862Y-107363710D01*
X170176995Y-107377086D01*
X170167328Y-107471438D01*
X170167000Y-107477855D01*
X170167000Y-107665385D01*
X167076377Y-107665385D01*
X167087814Y-107556565D01*
X167088504Y-107550000D01*
X167080247Y-107471438D01*
X167069232Y-107366635D01*
X167069232Y-107366633D01*
X167068542Y-107360072D01*
X167009527Y-107178444D01*
X166914040Y-107013056D01*
X166786253Y-106871134D01*
X166661573Y-106780548D01*
X166637094Y-106762763D01*
X166637093Y-106762762D01*
X166631752Y-106758882D01*
X166625724Y-106756198D01*
X166625722Y-106756197D01*
X166463319Y-106683891D01*
X166463318Y-106683891D01*
X166457288Y-106681206D01*
X166363888Y-106661353D01*
X166276944Y-106642872D01*
X166276939Y-106642872D01*
X166270487Y-106641500D01*
X166159500Y-106641500D01*
X166091379Y-106621498D01*
X166044886Y-106567842D01*
X166033500Y-106515500D01*
X166033500Y-105382082D01*
X166053502Y-105313961D01*
X166070405Y-105292987D01*
X169479626Y-101883766D01*
X171742000Y-101883766D01*
X171742337Y-101890282D01*
X171752075Y-101984132D01*
X171754968Y-101997528D01*
X171805488Y-102148953D01*
X171811653Y-102162115D01*
X171895426Y-102297492D01*
X171904460Y-102308890D01*
X172017129Y-102421363D01*
X172028540Y-102430375D01*
X172164063Y-102513912D01*
X172177241Y-102520056D01*
X172328766Y-102570315D01*
X172342132Y-102573181D01*
X172434770Y-102582672D01*
X172441185Y-102583000D01*
X172515385Y-102583000D01*
X172530624Y-102578525D01*
X172531829Y-102577135D01*
X172533500Y-102569452D01*
X172533500Y-101872115D01*
X172529025Y-101856876D01*
X172527635Y-101855671D01*
X172519952Y-101854000D01*
X171760115Y-101854000D01*
X171744876Y-101858475D01*
X171743671Y-101859865D01*
X171742000Y-101867548D01*
X171742000Y-101883766D01*
X169479626Y-101883766D01*
X171131705Y-100231687D01*
X171194017Y-100197661D01*
X171264832Y-100202726D01*
X171321668Y-100245273D01*
X171341797Y-100285630D01*
X171349105Y-100310786D01*
X171355352Y-100325221D01*
X171431911Y-100454678D01*
X171441551Y-100467104D01*
X171547896Y-100573449D01*
X171560322Y-100583089D01*
X171689779Y-100659648D01*
X171704210Y-100665893D01*
X171832022Y-100703027D01*
X171891857Y-100741241D01*
X171921534Y-100805737D01*
X171911630Y-100876040D01*
X171895748Y-100902118D01*
X171894626Y-100903538D01*
X171811088Y-101039063D01*
X171804944Y-101052241D01*
X171754685Y-101203766D01*
X171751819Y-101217132D01*
X171742328Y-101309770D01*
X171742000Y-101316185D01*
X171742000Y-101327885D01*
X171746475Y-101343124D01*
X171747865Y-101344329D01*
X171755548Y-101346000D01*
X172515385Y-101346000D01*
X172530624Y-101341525D01*
X172531829Y-101340135D01*
X172533500Y-101332452D01*
X172533500Y-100761874D01*
X172531000Y-100744486D01*
X172531000Y-99777000D01*
X172551002Y-99708879D01*
X172604658Y-99662386D01*
X172657000Y-99651000D01*
X174246878Y-99651000D01*
X174260409Y-99647027D01*
X174261544Y-99639129D01*
X174220893Y-99499210D01*
X174214648Y-99484779D01*
X174138089Y-99355323D01*
X174132129Y-99347640D01*
X174106180Y-99281556D01*
X174120078Y-99211933D01*
X174130421Y-99195839D01*
X174134453Y-99191807D01*
X174219145Y-99048601D01*
X174265562Y-98888831D01*
X174268500Y-98851502D01*
X174268500Y-98418498D01*
X174265562Y-98381169D01*
X174219145Y-98221399D01*
X174134453Y-98078193D01*
X174131771Y-98075511D01*
X174106498Y-98011139D01*
X174120400Y-97941516D01*
X174130572Y-97925688D01*
X174134453Y-97921807D01*
X174219145Y-97778601D01*
X174265562Y-97618831D01*
X174266280Y-97609715D01*
X174268307Y-97583958D01*
X174268307Y-97583950D01*
X174268500Y-97581502D01*
X174268500Y-97148498D01*
X174265562Y-97111169D01*
X174233985Y-97002479D01*
X174221357Y-96959012D01*
X174221356Y-96959010D01*
X174219145Y-96951399D01*
X174134453Y-96808193D01*
X174131771Y-96805511D01*
X174106498Y-96741139D01*
X174120400Y-96671516D01*
X174130572Y-96655688D01*
X174134453Y-96651807D01*
X174219145Y-96508601D01*
X174224289Y-96490897D01*
X174249718Y-96403367D01*
X174265562Y-96348831D01*
X174268500Y-96311502D01*
X174268500Y-95878498D01*
X174265562Y-95841169D01*
X174219145Y-95681399D01*
X174195232Y-95640964D01*
X174138491Y-95545020D01*
X174138489Y-95545017D01*
X174134453Y-95538193D01*
X174016807Y-95420547D01*
X174009983Y-95416511D01*
X174009980Y-95416509D01*
X173880427Y-95339892D01*
X173880428Y-95339892D01*
X173873601Y-95335855D01*
X173865990Y-95333644D01*
X173865988Y-95333643D01*
X173780758Y-95308882D01*
X173713831Y-95289438D01*
X173707426Y-95288934D01*
X173707421Y-95288933D01*
X173678958Y-95286693D01*
X173678950Y-95286693D01*
X173676502Y-95286500D01*
X171157240Y-95286500D01*
X171112086Y-95278131D01*
X171026215Y-95245168D01*
X170941432Y-95212623D01*
X170934913Y-95211590D01*
X170934911Y-95211590D01*
X170759327Y-95183780D01*
X170759325Y-95183780D01*
X170752810Y-95182748D01*
X170746223Y-95183093D01*
X170746218Y-95183093D01*
X170568689Y-95192397D01*
X170568685Y-95192398D01*
X170562096Y-95192743D01*
X170421994Y-95230284D01*
X170421990Y-95230284D01*
X170421792Y-95230337D01*
X170421779Y-95230290D01*
X170421603Y-95230295D01*
X170418553Y-95231027D01*
X170417727Y-95231203D01*
X170417558Y-95230410D01*
X170416090Y-95230452D01*
X170416443Y-95231771D01*
X170377630Y-95242171D01*
X170371754Y-95245165D01*
X170371746Y-95245168D01*
X170273549Y-95295202D01*
X170267595Y-95298042D01*
X170249287Y-95306193D01*
X170249284Y-95306195D01*
X170243248Y-95308882D01*
X170237903Y-95312766D01*
X170232186Y-95316066D01*
X170232018Y-95315774D01*
X170226307Y-95319273D01*
X170207470Y-95328871D01*
X170202341Y-95333024D01*
X170202337Y-95333027D01*
X170137896Y-95385211D01*
X170132663Y-95389227D01*
X170088747Y-95421134D01*
X170084326Y-95426044D01*
X170084325Y-95426045D01*
X170042984Y-95471959D01*
X170038443Y-95476744D01*
X170023928Y-95491259D01*
X170021852Y-95493823D01*
X170011006Y-95507216D01*
X170006722Y-95512231D01*
X169965381Y-95558145D01*
X169965377Y-95558150D01*
X169960960Y-95563056D01*
X169957660Y-95568772D01*
X169957657Y-95568776D01*
X169953927Y-95575237D01*
X169942727Y-95591533D01*
X169933871Y-95602470D01*
X169902815Y-95663421D01*
X169899669Y-95669215D01*
X169865473Y-95728444D01*
X169863432Y-95734726D01*
X169863431Y-95734728D01*
X169861125Y-95741826D01*
X169853560Y-95760092D01*
X169847171Y-95772630D01*
X169845463Y-95779003D01*
X169845463Y-95779004D01*
X169829469Y-95838695D01*
X169827600Y-95845003D01*
X169806458Y-95910072D01*
X169805768Y-95916637D01*
X169805766Y-95916646D01*
X169804985Y-95924075D01*
X169801383Y-95943509D01*
X169799514Y-95950488D01*
X169797743Y-95957097D01*
X169797398Y-95963688D01*
X169797397Y-95963692D01*
X169794164Y-96025384D01*
X169793647Y-96031959D01*
X169786496Y-96100000D01*
X169787186Y-96106566D01*
X169787186Y-96106568D01*
X169787967Y-96114001D01*
X169788484Y-96133759D01*
X169787748Y-96147810D01*
X169798450Y-96215383D01*
X169799305Y-96221876D01*
X169806458Y-96289928D01*
X169808498Y-96296205D01*
X169808498Y-96296207D01*
X169810806Y-96303311D01*
X169815421Y-96322534D01*
X169816589Y-96329906D01*
X169817623Y-96336432D01*
X169819988Y-96342593D01*
X169842134Y-96400284D01*
X169844335Y-96406501D01*
X169865473Y-96471556D01*
X169872351Y-96483469D01*
X169872507Y-96483739D01*
X169881019Y-96501586D01*
X169883693Y-96508552D01*
X169883696Y-96508557D01*
X169886062Y-96514722D01*
X169889659Y-96520261D01*
X169923321Y-96572096D01*
X169926766Y-96577719D01*
X169960960Y-96636944D01*
X169965378Y-96641851D01*
X169965379Y-96641852D01*
X169970372Y-96647397D01*
X169982408Y-96663083D01*
X169990074Y-96674887D01*
X170038443Y-96723256D01*
X170042984Y-96728041D01*
X170088747Y-96778866D01*
X170094086Y-96782745D01*
X170094087Y-96782746D01*
X170100135Y-96787140D01*
X170115168Y-96799981D01*
X170125113Y-96809926D01*
X170130651Y-96813523D01*
X170130653Y-96813524D01*
X170182475Y-96847178D01*
X170187910Y-96850913D01*
X170243248Y-96891118D01*
X170249278Y-96893803D01*
X170249282Y-96893805D01*
X170256106Y-96896843D01*
X170273478Y-96906275D01*
X170285278Y-96913938D01*
X170291439Y-96916303D01*
X170291443Y-96916305D01*
X170349133Y-96938450D01*
X170355206Y-96940965D01*
X170417712Y-96968794D01*
X170424166Y-96970166D01*
X170424170Y-96970167D01*
X170431473Y-96971719D01*
X170450432Y-96977334D01*
X170463568Y-96982377D01*
X170531133Y-96993078D01*
X170537586Y-96994274D01*
X170604513Y-97008500D01*
X170618583Y-97008500D01*
X170638292Y-97010051D01*
X170652190Y-97012252D01*
X170658777Y-97011907D01*
X170658782Y-97011907D01*
X170720480Y-97008673D01*
X170727074Y-97008500D01*
X170795487Y-97008500D01*
X170809253Y-97005574D01*
X170828857Y-97002993D01*
X170836309Y-97002603D01*
X170836313Y-97002602D01*
X170842903Y-97002257D01*
X170849274Y-97000550D01*
X170849280Y-97000549D01*
X170908978Y-96984553D01*
X170915390Y-96983014D01*
X170929512Y-96980012D01*
X170982288Y-96968794D01*
X170988317Y-96966110D01*
X170988319Y-96966109D01*
X170995147Y-96963069D01*
X171013779Y-96956471D01*
X171020992Y-96954538D01*
X171020993Y-96954538D01*
X171027370Y-96952829D01*
X171088338Y-96921764D01*
X171094234Y-96918953D01*
X171104479Y-96914391D01*
X171155722Y-96903500D01*
X171196955Y-96903500D01*
X171265076Y-96923502D01*
X171311569Y-96977158D01*
X171321673Y-97047432D01*
X171317952Y-97064653D01*
X171304438Y-97111169D01*
X171301500Y-97148498D01*
X171301500Y-97581502D01*
X171301693Y-97583950D01*
X171301693Y-97583958D01*
X171303721Y-97609715D01*
X171304438Y-97618831D01*
X171306231Y-97625003D01*
X171306232Y-97625008D01*
X171325640Y-97691811D01*
X171338956Y-97737641D01*
X171339070Y-97738035D01*
X171338867Y-97809031D01*
X171300313Y-97868648D01*
X171259514Y-97892178D01*
X171233448Y-97901255D01*
X171227473Y-97904989D01*
X171227470Y-97904990D01*
X171205005Y-97919027D01*
X171191488Y-97926366D01*
X171167481Y-97937561D01*
X171167477Y-97937563D01*
X171161098Y-97940538D01*
X171133184Y-97962190D01*
X171126844Y-97967108D01*
X171116395Y-97974397D01*
X171079624Y-97997374D01*
X171074625Y-98002339D01*
X171074623Y-98002340D01*
X171050815Y-98025983D01*
X171050192Y-98026566D01*
X171049530Y-98027079D01*
X171023683Y-98052926D01*
X170950918Y-98125185D01*
X170950259Y-98126223D01*
X170949153Y-98127456D01*
X164659842Y-104416766D01*
X164658905Y-104417694D01*
X164594493Y-104480771D01*
X164571002Y-104517221D01*
X164563583Y-104527546D01*
X164536524Y-104561443D01*
X164533459Y-104567784D01*
X164533458Y-104567785D01*
X164521928Y-104591637D01*
X164514399Y-104605054D01*
X164496235Y-104633238D01*
X164493827Y-104639855D01*
X164493824Y-104639860D01*
X164481408Y-104673973D01*
X164476447Y-104685716D01*
X164460646Y-104718403D01*
X164460644Y-104718408D01*
X164457579Y-104724749D01*
X164455996Y-104731607D01*
X164455995Y-104731609D01*
X164450035Y-104757426D01*
X164445668Y-104772169D01*
X164434197Y-104803685D01*
X164433314Y-104810675D01*
X164433312Y-104810683D01*
X164428762Y-104846701D01*
X164426526Y-104859253D01*
X164416776Y-104901485D01*
X164416751Y-104908531D01*
X164416751Y-104908534D01*
X164416634Y-104942056D01*
X164416605Y-104942938D01*
X164416500Y-104943769D01*
X164416500Y-104980572D01*
X164416143Y-105082870D01*
X164416411Y-105084070D01*
X164416500Y-105085707D01*
X164416500Y-108438174D01*
X164408482Y-108482404D01*
X164398255Y-108509684D01*
X164391500Y-108571866D01*
X164391500Y-110228134D01*
X164398255Y-110290316D01*
X164449385Y-110426705D01*
X164536739Y-110543261D01*
X164653295Y-110630615D01*
X164661703Y-110633767D01*
X164669575Y-110638077D01*
X164668272Y-110640457D01*
X164713804Y-110674664D01*
X164738501Y-110741227D01*
X164723291Y-110810575D01*
X164673003Y-110860691D01*
X164665903Y-110863933D01*
X164661701Y-110866234D01*
X164653295Y-110869385D01*
X164536739Y-110956739D01*
X164449385Y-111073295D01*
X164398255Y-111209684D01*
X164391500Y-111271866D01*
X164391500Y-112928134D01*
X164398255Y-112990316D01*
X164401029Y-112997715D01*
X164408482Y-113017596D01*
X164416500Y-113061826D01*
X164416500Y-113387918D01*
X164396498Y-113456039D01*
X164379595Y-113477013D01*
X161994842Y-115861766D01*
X161993905Y-115862694D01*
X161929493Y-115925771D01*
X161906002Y-115962221D01*
X161898583Y-115972546D01*
X161871524Y-116006443D01*
X161868459Y-116012784D01*
X161868458Y-116012785D01*
X161856928Y-116036637D01*
X161849399Y-116050054D01*
X161831235Y-116078238D01*
X161828827Y-116084855D01*
X161828824Y-116084860D01*
X161816408Y-116118973D01*
X161811447Y-116130716D01*
X161795646Y-116163403D01*
X161795644Y-116163408D01*
X161792579Y-116169749D01*
X161790996Y-116176607D01*
X161790995Y-116176609D01*
X161785035Y-116202426D01*
X161780668Y-116217169D01*
X161769197Y-116248685D01*
X161768314Y-116255675D01*
X161768312Y-116255683D01*
X161763762Y-116291701D01*
X161761526Y-116304253D01*
X161751776Y-116346485D01*
X161751751Y-116353531D01*
X161751751Y-116353534D01*
X161751634Y-116387056D01*
X161751605Y-116387938D01*
X161751500Y-116388769D01*
X161751500Y-116425572D01*
X161751143Y-116527870D01*
X161751411Y-116529070D01*
X161751500Y-116530707D01*
X161751500Y-116845195D01*
X161731498Y-116913316D01*
X161701153Y-116945955D01*
X161659106Y-116977525D01*
X161659100Y-116977531D01*
X161654965Y-116980635D01*
X161651391Y-116984375D01*
X161561280Y-117078671D01*
X161500629Y-117142138D01*
X161374743Y-117326680D01*
X161280688Y-117529305D01*
X161220989Y-117744570D01*
X161197251Y-117966695D01*
X160908500Y-117966695D01*
X160908500Y-95932703D01*
X163415743Y-95932703D01*
X163416302Y-95936947D01*
X163416302Y-95936951D01*
X163419210Y-95959036D01*
X163453268Y-96217734D01*
X163529129Y-96495036D01*
X163530813Y-96498984D01*
X163634102Y-96741139D01*
X163641923Y-96759476D01*
X163653528Y-96778866D01*
X163787225Y-97002257D01*
X163789561Y-97006161D01*
X163969313Y-97230528D01*
X164177851Y-97428423D01*
X164411317Y-97596186D01*
X164415112Y-97598195D01*
X164415113Y-97598196D01*
X164454086Y-97618831D01*
X164665392Y-97730712D01*
X164935373Y-97829511D01*
X165216264Y-97890755D01*
X165234371Y-97892180D01*
X165439282Y-97908307D01*
X165439291Y-97908307D01*
X165441739Y-97908500D01*
X165597271Y-97908500D01*
X165599407Y-97908354D01*
X165599418Y-97908354D01*
X165807548Y-97894165D01*
X165807554Y-97894164D01*
X165811825Y-97893873D01*
X165816020Y-97893004D01*
X165816022Y-97893004D01*
X165998730Y-97855167D01*
X166093342Y-97835574D01*
X166364343Y-97739607D01*
X166619812Y-97607750D01*
X166623313Y-97605289D01*
X166623317Y-97605287D01*
X166737417Y-97525096D01*
X166855023Y-97442441D01*
X167065622Y-97246740D01*
X167247713Y-97024268D01*
X167397927Y-96779142D01*
X167445172Y-96671516D01*
X167511757Y-96519830D01*
X167513483Y-96515898D01*
X167592244Y-96239406D01*
X167632751Y-95954784D01*
X167632811Y-95943509D01*
X167634235Y-95671583D01*
X167634235Y-95671576D01*
X167634257Y-95667297D01*
X167625723Y-95602470D01*
X167602510Y-95426156D01*
X167596732Y-95382266D01*
X167520871Y-95104964D01*
X167408077Y-94840524D01*
X167260439Y-94593839D01*
X167080687Y-94369472D01*
X166872149Y-94171577D01*
X166638683Y-94003814D01*
X166616843Y-93992250D01*
X166593654Y-93979972D01*
X166384608Y-93869288D01*
X166114627Y-93770489D01*
X165833736Y-93709245D01*
X165802685Y-93706801D01*
X165610718Y-93691693D01*
X165610709Y-93691693D01*
X165608261Y-93691500D01*
X165452729Y-93691500D01*
X165450593Y-93691646D01*
X165450582Y-93691646D01*
X165242452Y-93705835D01*
X165242446Y-93705836D01*
X165238175Y-93706127D01*
X165233980Y-93706996D01*
X165233978Y-93706996D01*
X165097417Y-93735276D01*
X164956658Y-93764426D01*
X164685657Y-93860393D01*
X164430188Y-93992250D01*
X164426687Y-93994711D01*
X164426683Y-93994713D01*
X164416594Y-94001804D01*
X164194977Y-94157559D01*
X163984378Y-94353260D01*
X163802287Y-94575732D01*
X163652073Y-94820858D01*
X163536517Y-95084102D01*
X163457756Y-95360594D01*
X163439160Y-95491259D01*
X163423333Y-95602470D01*
X163417249Y-95645216D01*
X163417227Y-95649505D01*
X163417226Y-95649512D01*
X163415827Y-95916646D01*
X163415743Y-95932703D01*
X160908500Y-95932703D01*
X160908500Y-91034500D01*
X160928502Y-90966379D01*
X160982158Y-90919886D01*
X161034500Y-90908500D01*
X175321690Y-90908500D01*
X175389811Y-90928502D01*
G37*
G04 #@! TD.AperFunction*
G04 #@! TA.AperFunction,Conductor*
G36*
X185883431Y-90908521D02*
G01*
X201912369Y-91199153D01*
X201980116Y-91220386D01*
X202025629Y-91274876D01*
X202036058Y-91327748D01*
X201927463Y-96556409D01*
X201906051Y-96624100D01*
X201851441Y-96669469D01*
X201806478Y-96679694D01*
X176811627Y-97669525D01*
X176742769Y-97652234D01*
X176694189Y-97600461D01*
X176680825Y-97536832D01*
X177032217Y-91027708D01*
X177055862Y-90960764D01*
X177111946Y-90917231D01*
X177158034Y-90908500D01*
X185881147Y-90908500D01*
X185883431Y-90908521D01*
G37*
G04 #@! TD.AperFunction*
G04 #@! TA.AperFunction,Conductor*
G36*
X188433963Y-98363762D02*
G01*
X188480485Y-98417393D01*
X188491896Y-98468999D01*
X188540301Y-106117001D01*
X188520731Y-106185247D01*
X188467371Y-106232078D01*
X188414373Y-106243798D01*
X177219848Y-106249934D01*
X177151716Y-106229969D01*
X177105194Y-106176339D01*
X177093940Y-106130306D01*
X176706699Y-98482302D01*
X176723231Y-98413257D01*
X176774467Y-98364110D01*
X176832471Y-98349930D01*
X188365832Y-98343796D01*
X188433963Y-98363762D01*
G37*
G04 #@! TD.AperFunction*
G04 #@! TA.AperFunction,Conductor*
G36*
X194393440Y-98126226D02*
G01*
X201965551Y-98129163D01*
X202033662Y-98149190D01*
X202080134Y-98202864D01*
X202091500Y-98255162D01*
X202091500Y-112079372D01*
X202071498Y-112147493D01*
X202017842Y-112193986D01*
X201965999Y-112205371D01*
X195780423Y-112229766D01*
X190776942Y-112249499D01*
X190708743Y-112229766D01*
X190662039Y-112176294D01*
X190650446Y-112123057D01*
X190678365Y-104178918D01*
X195536917Y-104178918D01*
X195552682Y-104452320D01*
X195553507Y-104456525D01*
X195553508Y-104456533D01*
X195564127Y-104510657D01*
X195605405Y-104721053D01*
X195606792Y-104725103D01*
X195606793Y-104725108D01*
X195627605Y-104785895D01*
X195694112Y-104980144D01*
X195817160Y-105224799D01*
X195819586Y-105228328D01*
X195819589Y-105228334D01*
X195969843Y-105446953D01*
X195972274Y-105450490D01*
X196156582Y-105653043D01*
X196366675Y-105828707D01*
X196370316Y-105830991D01*
X196595024Y-105971951D01*
X196595028Y-105971953D01*
X196598664Y-105974234D01*
X196666544Y-106004883D01*
X196844345Y-106085164D01*
X196844349Y-106085166D01*
X196848257Y-106086930D01*
X196852377Y-106088150D01*
X196852376Y-106088150D01*
X197106723Y-106163491D01*
X197106727Y-106163492D01*
X197110836Y-106164709D01*
X197115070Y-106165357D01*
X197115075Y-106165358D01*
X197377298Y-106205483D01*
X197377300Y-106205483D01*
X197381540Y-106206132D01*
X197520912Y-106208322D01*
X197651071Y-106210367D01*
X197651077Y-106210367D01*
X197655362Y-106210434D01*
X197927235Y-106177534D01*
X198192127Y-106108041D01*
X198196087Y-106106401D01*
X198196092Y-106106399D01*
X198318632Y-106055641D01*
X198445136Y-106003241D01*
X198681582Y-105865073D01*
X198897089Y-105696094D01*
X198938809Y-105653043D01*
X199084686Y-105502509D01*
X199087669Y-105499431D01*
X199090202Y-105495983D01*
X199090206Y-105495978D01*
X199247257Y-105282178D01*
X199249795Y-105278723D01*
X199277154Y-105228334D01*
X199378418Y-105041830D01*
X199378419Y-105041828D01*
X199380468Y-105038054D01*
X199477269Y-104781877D01*
X199538407Y-104514933D01*
X199562751Y-104242161D01*
X199563193Y-104200000D01*
X199544567Y-103926778D01*
X199489032Y-103658612D01*
X199397617Y-103400465D01*
X199272013Y-103157112D01*
X199262040Y-103142921D01*
X199117008Y-102936562D01*
X199114545Y-102933057D01*
X198928125Y-102732445D01*
X198924810Y-102729731D01*
X198924806Y-102729728D01*
X198719523Y-102561706D01*
X198716205Y-102558990D01*
X198482704Y-102415901D01*
X198478768Y-102414173D01*
X198235873Y-102307549D01*
X198235869Y-102307548D01*
X198231945Y-102305825D01*
X197968566Y-102230800D01*
X197964324Y-102230196D01*
X197964318Y-102230195D01*
X197763834Y-102201662D01*
X197697443Y-102192213D01*
X197553589Y-102191460D01*
X197427877Y-102190802D01*
X197427871Y-102190802D01*
X197423591Y-102190780D01*
X197419347Y-102191339D01*
X197419343Y-102191339D01*
X197300302Y-102207011D01*
X197152078Y-102226525D01*
X197147938Y-102227658D01*
X197147936Y-102227658D01*
X197075008Y-102247609D01*
X196887928Y-102298788D01*
X196883980Y-102300472D01*
X196639982Y-102404546D01*
X196639978Y-102404548D01*
X196636030Y-102406232D01*
X196616125Y-102418145D01*
X196404725Y-102544664D01*
X196404721Y-102544667D01*
X196401043Y-102546868D01*
X196187318Y-102718094D01*
X195998808Y-102916742D01*
X195839002Y-103139136D01*
X195710857Y-103381161D01*
X195709385Y-103385184D01*
X195709383Y-103385188D01*
X195702314Y-103404506D01*
X195616743Y-103638337D01*
X195558404Y-103905907D01*
X195536917Y-104178918D01*
X190678365Y-104178918D01*
X190699200Y-98250400D01*
X190719441Y-98182350D01*
X190773260Y-98136046D01*
X190825248Y-98124843D01*
X194393440Y-98126226D01*
G37*
G04 #@! TD.AperFunction*
M02*
