%FSLAX45Y45*%
G04 Gerber Fmt 4.5, Leading zero omitted, Abs format (unit mm)*
G04 Created by KiCad (PCBNEW 6.0.6) date 2022-07-14 17:34:40*
%MOMM*%
%LPD*%
G01*
G04 APERTURE LIST*
%TA.AperFunction,Profile*%
%ADD10C,0.100000*%
%TD*%
%ADD11C,0.200000*%
%ADD12C,0.040000*%
%ADD13C,0.100000*%
%ADD14C,0.130000*%
G04 APERTURE END LIST*
D10*
X16040000Y-9040000D02*
X20260000Y-9040000D01*
X20260000Y-9040000D02*
X20260000Y-12065000D01*
X20260000Y-12065000D02*
X16040000Y-12065000D01*
X16040000Y-12065000D02*
X16040000Y-9040000D01*
D11*
D12*
X16597500Y-10735000D02*
X16637500Y-10775000D01*
X16637500Y-10735000D02*
X16597500Y-10775000D01*
X17050000Y-9590000D02*
X17090000Y-9630000D01*
X17090000Y-9590000D02*
X17050000Y-9630000D01*
X17142500Y-11292500D02*
X17182500Y-11332500D01*
X17182500Y-11292500D02*
X17142500Y-11332500D01*
X17430000Y-10285000D02*
X17470000Y-10325000D01*
X17470000Y-10285000D02*
X17430000Y-10325000D01*
D13*
X16306000Y-11800000D02*
G75*
G03*
X16306000Y-11800000I-50000J0D01*
G01*
X16560000Y-11800000D02*
G75*
G03*
X16560000Y-11800000I-50000J0D01*
G01*
X16950000Y-11800000D02*
G75*
G03*
X16950000Y-11800000I-50000J0D01*
G01*
X17204000Y-11800000D02*
G75*
G03*
X17204000Y-11800000I-50000J0D01*
G01*
X17592500Y-11800000D02*
G75*
G03*
X17592500Y-11800000I-50000J0D01*
G01*
X17846500Y-11800000D02*
G75*
G03*
X17846500Y-11800000I-50000J0D01*
G01*
D14*
X18535000Y-10355000D02*
X18535000Y-10485000D01*
X18470000Y-10420000D02*
X18600000Y-10420000D01*
X18535000Y-11555000D02*
X18535000Y-11685000D01*
X18470000Y-11620000D02*
X18600000Y-11620000D01*
X19664500Y-9323000D02*
X19664500Y-9453000D01*
X19599500Y-9388000D02*
X19729500Y-9388000D01*
X19664500Y-9831000D02*
X19664500Y-9961000D01*
X19599500Y-9896000D02*
X19729500Y-9896000D01*
X19755000Y-10355000D02*
X19755000Y-10485000D01*
X19690000Y-10420000D02*
X19820000Y-10420000D01*
X19755000Y-11555000D02*
X19755000Y-11685000D01*
X19690000Y-11620000D02*
X19820000Y-11620000D01*
X19955000Y-10955000D02*
X19955000Y-11085000D01*
X19890000Y-11020000D02*
X20020000Y-11020000D01*
D11*
X16292619Y-12380476D02*
X16292619Y-12180476D01*
X16340238Y-12180476D01*
X16368809Y-12190000D01*
X16387857Y-12209048D01*
X16397381Y-12228095D01*
X16406905Y-12266190D01*
X16406905Y-12294762D01*
X16397381Y-12332857D01*
X16387857Y-12351905D01*
X16368809Y-12370952D01*
X16340238Y-12380476D01*
X16292619Y-12380476D01*
X16492619Y-12380476D02*
X16492619Y-12247143D01*
X16492619Y-12285238D02*
X16502143Y-12266190D01*
X16511667Y-12256667D01*
X16530714Y-12247143D01*
X16549762Y-12247143D01*
X16616428Y-12380476D02*
X16616428Y-12247143D01*
X16616428Y-12180476D02*
X16606905Y-12190000D01*
X16616428Y-12199524D01*
X16625952Y-12190000D01*
X16616428Y-12180476D01*
X16616428Y-12199524D01*
X16740238Y-12380476D02*
X16721190Y-12370952D01*
X16711667Y-12351905D01*
X16711667Y-12180476D01*
X16845000Y-12380476D02*
X16825952Y-12370952D01*
X16816429Y-12351905D01*
X16816429Y-12180476D01*
X17073571Y-12380476D02*
X17073571Y-12180476D01*
X17140238Y-12323333D01*
X17206905Y-12180476D01*
X17206905Y-12380476D01*
X17387857Y-12380476D02*
X17387857Y-12275714D01*
X17378333Y-12256667D01*
X17359286Y-12247143D01*
X17321190Y-12247143D01*
X17302143Y-12256667D01*
X17387857Y-12370952D02*
X17368810Y-12380476D01*
X17321190Y-12380476D01*
X17302143Y-12370952D01*
X17292619Y-12351905D01*
X17292619Y-12332857D01*
X17302143Y-12313809D01*
X17321190Y-12304286D01*
X17368810Y-12304286D01*
X17387857Y-12294762D01*
X17483095Y-12247143D02*
X17483095Y-12447143D01*
X17483095Y-12256667D02*
X17502143Y-12247143D01*
X17540238Y-12247143D01*
X17559286Y-12256667D01*
X17568810Y-12266190D01*
X17578333Y-12285238D01*
X17578333Y-12342381D01*
X17568810Y-12361428D01*
X17559286Y-12370952D01*
X17540238Y-12380476D01*
X17502143Y-12380476D01*
X17483095Y-12370952D01*
X17664048Y-12361428D02*
X17673571Y-12370952D01*
X17664048Y-12380476D01*
X17654524Y-12370952D01*
X17664048Y-12361428D01*
X17664048Y-12380476D01*
X17664048Y-12256667D02*
X17673571Y-12266190D01*
X17664048Y-12275714D01*
X17654524Y-12266190D01*
X17664048Y-12256667D01*
X17664048Y-12275714D01*
D12*
X15995000Y-12690000D02*
X16035000Y-12730000D01*
X16035000Y-12690000D02*
X15995000Y-12730000D01*
D11*
X16330714Y-12600476D02*
X16349762Y-12600476D01*
X16368809Y-12610000D01*
X16378333Y-12619524D01*
X16387857Y-12638571D01*
X16397381Y-12676667D01*
X16397381Y-12724286D01*
X16387857Y-12762381D01*
X16378333Y-12781428D01*
X16368809Y-12790952D01*
X16349762Y-12800476D01*
X16330714Y-12800476D01*
X16311667Y-12790952D01*
X16302143Y-12781428D01*
X16292619Y-12762381D01*
X16283095Y-12724286D01*
X16283095Y-12676667D01*
X16292619Y-12638571D01*
X16302143Y-12619524D01*
X16311667Y-12610000D01*
X16330714Y-12600476D01*
X16483095Y-12781428D02*
X16492619Y-12790952D01*
X16483095Y-12800476D01*
X16473571Y-12790952D01*
X16483095Y-12781428D01*
X16483095Y-12800476D01*
X16664048Y-12667143D02*
X16664048Y-12800476D01*
X16616428Y-12590952D02*
X16568809Y-12733809D01*
X16692619Y-12733809D01*
X16806905Y-12600476D02*
X16825952Y-12600476D01*
X16845000Y-12610000D01*
X16854524Y-12619524D01*
X16864048Y-12638571D01*
X16873571Y-12676667D01*
X16873571Y-12724286D01*
X16864048Y-12762381D01*
X16854524Y-12781428D01*
X16845000Y-12790952D01*
X16825952Y-12800476D01*
X16806905Y-12800476D01*
X16787857Y-12790952D01*
X16778333Y-12781428D01*
X16768809Y-12762381D01*
X16759286Y-12724286D01*
X16759286Y-12676667D01*
X16768809Y-12638571D01*
X16778333Y-12619524D01*
X16787857Y-12610000D01*
X16806905Y-12600476D01*
X16997381Y-12600476D02*
X17016429Y-12600476D01*
X17035476Y-12610000D01*
X17045000Y-12619524D01*
X17054524Y-12638571D01*
X17064048Y-12676667D01*
X17064048Y-12724286D01*
X17054524Y-12762381D01*
X17045000Y-12781428D01*
X17035476Y-12790952D01*
X17016429Y-12800476D01*
X16997381Y-12800476D01*
X16978333Y-12790952D01*
X16968810Y-12781428D01*
X16959286Y-12762381D01*
X16949762Y-12724286D01*
X16949762Y-12676667D01*
X16959286Y-12638571D01*
X16968810Y-12619524D01*
X16978333Y-12610000D01*
X16997381Y-12600476D01*
X17149762Y-12800476D02*
X17149762Y-12667143D01*
X17149762Y-12686190D02*
X17159286Y-12676667D01*
X17178333Y-12667143D01*
X17206905Y-12667143D01*
X17225952Y-12676667D01*
X17235476Y-12695714D01*
X17235476Y-12800476D01*
X17235476Y-12695714D02*
X17245000Y-12676667D01*
X17264048Y-12667143D01*
X17292619Y-12667143D01*
X17311667Y-12676667D01*
X17321190Y-12695714D01*
X17321190Y-12800476D01*
X17416429Y-12800476D02*
X17416429Y-12667143D01*
X17416429Y-12686190D02*
X17425952Y-12676667D01*
X17445000Y-12667143D01*
X17473571Y-12667143D01*
X17492619Y-12676667D01*
X17502143Y-12695714D01*
X17502143Y-12800476D01*
X17502143Y-12695714D02*
X17511667Y-12676667D01*
X17530714Y-12667143D01*
X17559286Y-12667143D01*
X17578333Y-12676667D01*
X17587857Y-12695714D01*
X17587857Y-12800476D01*
X17978333Y-12590952D02*
X17806905Y-12848095D01*
X18235476Y-12600476D02*
X18254524Y-12600476D01*
X18273571Y-12610000D01*
X18283095Y-12619524D01*
X18292619Y-12638571D01*
X18302143Y-12676667D01*
X18302143Y-12724286D01*
X18292619Y-12762381D01*
X18283095Y-12781428D01*
X18273571Y-12790952D01*
X18254524Y-12800476D01*
X18235476Y-12800476D01*
X18216429Y-12790952D01*
X18206905Y-12781428D01*
X18197381Y-12762381D01*
X18187857Y-12724286D01*
X18187857Y-12676667D01*
X18197381Y-12638571D01*
X18206905Y-12619524D01*
X18216429Y-12610000D01*
X18235476Y-12600476D01*
X18387857Y-12781428D02*
X18397381Y-12790952D01*
X18387857Y-12800476D01*
X18378333Y-12790952D01*
X18387857Y-12781428D01*
X18387857Y-12800476D01*
X18521190Y-12600476D02*
X18540238Y-12600476D01*
X18559286Y-12610000D01*
X18568810Y-12619524D01*
X18578333Y-12638571D01*
X18587857Y-12676667D01*
X18587857Y-12724286D01*
X18578333Y-12762381D01*
X18568810Y-12781428D01*
X18559286Y-12790952D01*
X18540238Y-12800476D01*
X18521190Y-12800476D01*
X18502143Y-12790952D01*
X18492619Y-12781428D01*
X18483095Y-12762381D01*
X18473571Y-12724286D01*
X18473571Y-12676667D01*
X18483095Y-12638571D01*
X18492619Y-12619524D01*
X18502143Y-12610000D01*
X18521190Y-12600476D01*
X18778333Y-12800476D02*
X18664048Y-12800476D01*
X18721190Y-12800476D02*
X18721190Y-12600476D01*
X18702143Y-12629048D01*
X18683095Y-12648095D01*
X18664048Y-12657619D01*
X18959286Y-12600476D02*
X18864048Y-12600476D01*
X18854524Y-12695714D01*
X18864048Y-12686190D01*
X18883095Y-12676667D01*
X18930714Y-12676667D01*
X18949762Y-12686190D01*
X18959286Y-12695714D01*
X18968810Y-12714762D01*
X18968810Y-12762381D01*
X18959286Y-12781428D01*
X18949762Y-12790952D01*
X18930714Y-12800476D01*
X18883095Y-12800476D01*
X18864048Y-12790952D01*
X18854524Y-12781428D01*
X19035476Y-12600476D02*
X19168810Y-12600476D01*
X19083095Y-12800476D01*
X19235476Y-12600476D02*
X19235476Y-12638571D01*
X19311667Y-12600476D02*
X19311667Y-12638571D01*
X19606905Y-12876667D02*
X19597381Y-12867143D01*
X19578333Y-12838571D01*
X19568810Y-12819524D01*
X19559286Y-12790952D01*
X19549762Y-12743333D01*
X19549762Y-12705238D01*
X19559286Y-12657619D01*
X19568810Y-12629048D01*
X19578333Y-12610000D01*
X19597381Y-12581428D01*
X19606905Y-12571905D01*
X19768810Y-12667143D02*
X19768810Y-12800476D01*
X19721190Y-12590952D02*
X19673571Y-12733809D01*
X19797381Y-12733809D01*
X20025952Y-12800476D02*
X20025952Y-12600476D01*
X20111667Y-12800476D02*
X20111667Y-12695714D01*
X20102143Y-12676667D01*
X20083095Y-12667143D01*
X20054524Y-12667143D01*
X20035476Y-12676667D01*
X20025952Y-12686190D01*
X20235476Y-12800476D02*
X20216429Y-12790952D01*
X20206905Y-12781428D01*
X20197381Y-12762381D01*
X20197381Y-12705238D01*
X20206905Y-12686190D01*
X20216429Y-12676667D01*
X20235476Y-12667143D01*
X20264048Y-12667143D01*
X20283095Y-12676667D01*
X20292619Y-12686190D01*
X20302143Y-12705238D01*
X20302143Y-12762381D01*
X20292619Y-12781428D01*
X20283095Y-12790952D01*
X20264048Y-12800476D01*
X20235476Y-12800476D01*
X20416429Y-12800476D02*
X20397381Y-12790952D01*
X20387857Y-12771905D01*
X20387857Y-12600476D01*
X20568810Y-12790952D02*
X20549762Y-12800476D01*
X20511667Y-12800476D01*
X20492619Y-12790952D01*
X20483095Y-12771905D01*
X20483095Y-12695714D01*
X20492619Y-12676667D01*
X20511667Y-12667143D01*
X20549762Y-12667143D01*
X20568810Y-12676667D01*
X20578333Y-12695714D01*
X20578333Y-12714762D01*
X20483095Y-12733809D01*
X20654524Y-12790952D02*
X20673571Y-12800476D01*
X20711667Y-12800476D01*
X20730714Y-12790952D01*
X20740238Y-12771905D01*
X20740238Y-12762381D01*
X20730714Y-12743333D01*
X20711667Y-12733809D01*
X20683095Y-12733809D01*
X20664048Y-12724286D01*
X20654524Y-12705238D01*
X20654524Y-12695714D01*
X20664048Y-12676667D01*
X20683095Y-12667143D01*
X20711667Y-12667143D01*
X20730714Y-12676667D01*
X20806905Y-12876667D02*
X20816429Y-12867143D01*
X20835476Y-12838571D01*
X20845000Y-12819524D01*
X20854524Y-12790952D01*
X20864048Y-12743333D01*
X20864048Y-12705238D01*
X20854524Y-12657619D01*
X20845000Y-12629048D01*
X20835476Y-12610000D01*
X20816429Y-12581428D01*
X20806905Y-12571905D01*
D13*
X16035000Y-12974000D02*
G75*
G03*
X16035000Y-12974000I-50000J0D01*
G01*
D11*
X16397381Y-13064476D02*
X16283095Y-13064476D01*
X16340238Y-13064476D02*
X16340238Y-12864476D01*
X16321190Y-12893048D01*
X16302143Y-12912095D01*
X16283095Y-12921619D01*
X16483095Y-13045428D02*
X16492619Y-13054952D01*
X16483095Y-13064476D01*
X16473571Y-13054952D01*
X16483095Y-13045428D01*
X16483095Y-13064476D01*
X16616428Y-12864476D02*
X16635476Y-12864476D01*
X16654524Y-12874000D01*
X16664048Y-12883524D01*
X16673571Y-12902571D01*
X16683095Y-12940667D01*
X16683095Y-12988286D01*
X16673571Y-13026381D01*
X16664048Y-13045428D01*
X16654524Y-13054952D01*
X16635476Y-13064476D01*
X16616428Y-13064476D01*
X16597381Y-13054952D01*
X16587857Y-13045428D01*
X16578333Y-13026381D01*
X16568809Y-12988286D01*
X16568809Y-12940667D01*
X16578333Y-12902571D01*
X16587857Y-12883524D01*
X16597381Y-12874000D01*
X16616428Y-12864476D01*
X16806905Y-12864476D02*
X16825952Y-12864476D01*
X16845000Y-12874000D01*
X16854524Y-12883524D01*
X16864048Y-12902571D01*
X16873571Y-12940667D01*
X16873571Y-12988286D01*
X16864048Y-13026381D01*
X16854524Y-13045428D01*
X16845000Y-13054952D01*
X16825952Y-13064476D01*
X16806905Y-13064476D01*
X16787857Y-13054952D01*
X16778333Y-13045428D01*
X16768809Y-13026381D01*
X16759286Y-12988286D01*
X16759286Y-12940667D01*
X16768809Y-12902571D01*
X16778333Y-12883524D01*
X16787857Y-12874000D01*
X16806905Y-12864476D01*
X16997381Y-12864476D02*
X17016429Y-12864476D01*
X17035476Y-12874000D01*
X17045000Y-12883524D01*
X17054524Y-12902571D01*
X17064048Y-12940667D01*
X17064048Y-12988286D01*
X17054524Y-13026381D01*
X17045000Y-13045428D01*
X17035476Y-13054952D01*
X17016429Y-13064476D01*
X16997381Y-13064476D01*
X16978333Y-13054952D01*
X16968810Y-13045428D01*
X16959286Y-13026381D01*
X16949762Y-12988286D01*
X16949762Y-12940667D01*
X16959286Y-12902571D01*
X16968810Y-12883524D01*
X16978333Y-12874000D01*
X16997381Y-12864476D01*
X17149762Y-13064476D02*
X17149762Y-12931143D01*
X17149762Y-12950190D02*
X17159286Y-12940667D01*
X17178333Y-12931143D01*
X17206905Y-12931143D01*
X17225952Y-12940667D01*
X17235476Y-12959714D01*
X17235476Y-13064476D01*
X17235476Y-12959714D02*
X17245000Y-12940667D01*
X17264048Y-12931143D01*
X17292619Y-12931143D01*
X17311667Y-12940667D01*
X17321190Y-12959714D01*
X17321190Y-13064476D01*
X17416429Y-13064476D02*
X17416429Y-12931143D01*
X17416429Y-12950190D02*
X17425952Y-12940667D01*
X17445000Y-12931143D01*
X17473571Y-12931143D01*
X17492619Y-12940667D01*
X17502143Y-12959714D01*
X17502143Y-13064476D01*
X17502143Y-12959714D02*
X17511667Y-12940667D01*
X17530714Y-12931143D01*
X17559286Y-12931143D01*
X17578333Y-12940667D01*
X17587857Y-12959714D01*
X17587857Y-13064476D01*
X17978333Y-12854952D02*
X17806905Y-13112095D01*
X18235476Y-12864476D02*
X18254524Y-12864476D01*
X18273571Y-12874000D01*
X18283095Y-12883524D01*
X18292619Y-12902571D01*
X18302143Y-12940667D01*
X18302143Y-12988286D01*
X18292619Y-13026381D01*
X18283095Y-13045428D01*
X18273571Y-13054952D01*
X18254524Y-13064476D01*
X18235476Y-13064476D01*
X18216429Y-13054952D01*
X18206905Y-13045428D01*
X18197381Y-13026381D01*
X18187857Y-12988286D01*
X18187857Y-12940667D01*
X18197381Y-12902571D01*
X18206905Y-12883524D01*
X18216429Y-12874000D01*
X18235476Y-12864476D01*
X18387857Y-13045428D02*
X18397381Y-13054952D01*
X18387857Y-13064476D01*
X18378333Y-13054952D01*
X18387857Y-13045428D01*
X18387857Y-13064476D01*
X18521190Y-12864476D02*
X18540238Y-12864476D01*
X18559286Y-12874000D01*
X18568810Y-12883524D01*
X18578333Y-12902571D01*
X18587857Y-12940667D01*
X18587857Y-12988286D01*
X18578333Y-13026381D01*
X18568810Y-13045428D01*
X18559286Y-13054952D01*
X18540238Y-13064476D01*
X18521190Y-13064476D01*
X18502143Y-13054952D01*
X18492619Y-13045428D01*
X18483095Y-13026381D01*
X18473571Y-12988286D01*
X18473571Y-12940667D01*
X18483095Y-12902571D01*
X18492619Y-12883524D01*
X18502143Y-12874000D01*
X18521190Y-12864476D01*
X18654524Y-12864476D02*
X18778333Y-12864476D01*
X18711667Y-12940667D01*
X18740238Y-12940667D01*
X18759286Y-12950190D01*
X18768810Y-12959714D01*
X18778333Y-12978762D01*
X18778333Y-13026381D01*
X18768810Y-13045428D01*
X18759286Y-13054952D01*
X18740238Y-13064476D01*
X18683095Y-13064476D01*
X18664048Y-13054952D01*
X18654524Y-13045428D01*
X18873571Y-13064476D02*
X18911667Y-13064476D01*
X18930714Y-13054952D01*
X18940238Y-13045428D01*
X18959286Y-13016857D01*
X18968810Y-12978762D01*
X18968810Y-12902571D01*
X18959286Y-12883524D01*
X18949762Y-12874000D01*
X18930714Y-12864476D01*
X18892619Y-12864476D01*
X18873571Y-12874000D01*
X18864048Y-12883524D01*
X18854524Y-12902571D01*
X18854524Y-12950190D01*
X18864048Y-12969238D01*
X18873571Y-12978762D01*
X18892619Y-12988286D01*
X18930714Y-12988286D01*
X18949762Y-12978762D01*
X18959286Y-12969238D01*
X18968810Y-12950190D01*
X19140238Y-12931143D02*
X19140238Y-13064476D01*
X19092619Y-12854952D02*
X19045000Y-12997809D01*
X19168810Y-12997809D01*
X19235476Y-12864476D02*
X19235476Y-12902571D01*
X19311667Y-12864476D02*
X19311667Y-12902571D01*
X19606905Y-13140667D02*
X19597381Y-13131143D01*
X19578333Y-13102571D01*
X19568810Y-13083524D01*
X19559286Y-13054952D01*
X19549762Y-13007333D01*
X19549762Y-12969238D01*
X19559286Y-12921619D01*
X19568810Y-12893048D01*
X19578333Y-12874000D01*
X19597381Y-12845428D01*
X19606905Y-12835905D01*
X19768810Y-12864476D02*
X19730714Y-12864476D01*
X19711667Y-12874000D01*
X19702143Y-12883524D01*
X19683095Y-12912095D01*
X19673571Y-12950190D01*
X19673571Y-13026381D01*
X19683095Y-13045428D01*
X19692619Y-13054952D01*
X19711667Y-13064476D01*
X19749762Y-13064476D01*
X19768810Y-13054952D01*
X19778333Y-13045428D01*
X19787857Y-13026381D01*
X19787857Y-12978762D01*
X19778333Y-12959714D01*
X19768810Y-12950190D01*
X19749762Y-12940667D01*
X19711667Y-12940667D01*
X19692619Y-12950190D01*
X19683095Y-12959714D01*
X19673571Y-12978762D01*
X20025952Y-13064476D02*
X20025952Y-12864476D01*
X20111667Y-13064476D02*
X20111667Y-12959714D01*
X20102143Y-12940667D01*
X20083095Y-12931143D01*
X20054524Y-12931143D01*
X20035476Y-12940667D01*
X20025952Y-12950190D01*
X20235476Y-13064476D02*
X20216429Y-13054952D01*
X20206905Y-13045428D01*
X20197381Y-13026381D01*
X20197381Y-12969238D01*
X20206905Y-12950190D01*
X20216429Y-12940667D01*
X20235476Y-12931143D01*
X20264048Y-12931143D01*
X20283095Y-12940667D01*
X20292619Y-12950190D01*
X20302143Y-12969238D01*
X20302143Y-13026381D01*
X20292619Y-13045428D01*
X20283095Y-13054952D01*
X20264048Y-13064476D01*
X20235476Y-13064476D01*
X20416429Y-13064476D02*
X20397381Y-13054952D01*
X20387857Y-13035905D01*
X20387857Y-12864476D01*
X20568810Y-13054952D02*
X20549762Y-13064476D01*
X20511667Y-13064476D01*
X20492619Y-13054952D01*
X20483095Y-13035905D01*
X20483095Y-12959714D01*
X20492619Y-12940667D01*
X20511667Y-12931143D01*
X20549762Y-12931143D01*
X20568810Y-12940667D01*
X20578333Y-12959714D01*
X20578333Y-12978762D01*
X20483095Y-12997809D01*
X20654524Y-13054952D02*
X20673571Y-13064476D01*
X20711667Y-13064476D01*
X20730714Y-13054952D01*
X20740238Y-13035905D01*
X20740238Y-13026381D01*
X20730714Y-13007333D01*
X20711667Y-12997809D01*
X20683095Y-12997809D01*
X20664048Y-12988286D01*
X20654524Y-12969238D01*
X20654524Y-12959714D01*
X20664048Y-12940667D01*
X20683095Y-12931143D01*
X20711667Y-12931143D01*
X20730714Y-12940667D01*
X20806905Y-13140667D02*
X20816429Y-13131143D01*
X20835476Y-13102571D01*
X20845000Y-13083524D01*
X20854524Y-13054952D01*
X20864048Y-13007333D01*
X20864048Y-12969238D01*
X20854524Y-12921619D01*
X20845000Y-12893048D01*
X20835476Y-12874000D01*
X20816429Y-12845428D01*
X20806905Y-12835905D01*
D14*
X15970000Y-13173000D02*
X15970000Y-13303000D01*
X15905000Y-13238000D02*
X16035000Y-13238000D01*
D11*
X16397381Y-13328476D02*
X16283095Y-13328476D01*
X16340238Y-13328476D02*
X16340238Y-13128476D01*
X16321190Y-13157048D01*
X16302143Y-13176095D01*
X16283095Y-13185619D01*
X16483095Y-13309428D02*
X16492619Y-13318952D01*
X16483095Y-13328476D01*
X16473571Y-13318952D01*
X16483095Y-13309428D01*
X16483095Y-13328476D01*
X16559286Y-13128476D02*
X16683095Y-13128476D01*
X16616428Y-13204667D01*
X16645000Y-13204667D01*
X16664048Y-13214190D01*
X16673571Y-13223714D01*
X16683095Y-13242762D01*
X16683095Y-13290381D01*
X16673571Y-13309428D01*
X16664048Y-13318952D01*
X16645000Y-13328476D01*
X16587857Y-13328476D01*
X16568809Y-13318952D01*
X16559286Y-13309428D01*
X16806905Y-13128476D02*
X16825952Y-13128476D01*
X16845000Y-13138000D01*
X16854524Y-13147524D01*
X16864048Y-13166571D01*
X16873571Y-13204667D01*
X16873571Y-13252286D01*
X16864048Y-13290381D01*
X16854524Y-13309428D01*
X16845000Y-13318952D01*
X16825952Y-13328476D01*
X16806905Y-13328476D01*
X16787857Y-13318952D01*
X16778333Y-13309428D01*
X16768809Y-13290381D01*
X16759286Y-13252286D01*
X16759286Y-13204667D01*
X16768809Y-13166571D01*
X16778333Y-13147524D01*
X16787857Y-13138000D01*
X16806905Y-13128476D01*
X16997381Y-13128476D02*
X17016429Y-13128476D01*
X17035476Y-13138000D01*
X17045000Y-13147524D01*
X17054524Y-13166571D01*
X17064048Y-13204667D01*
X17064048Y-13252286D01*
X17054524Y-13290381D01*
X17045000Y-13309428D01*
X17035476Y-13318952D01*
X17016429Y-13328476D01*
X16997381Y-13328476D01*
X16978333Y-13318952D01*
X16968810Y-13309428D01*
X16959286Y-13290381D01*
X16949762Y-13252286D01*
X16949762Y-13204667D01*
X16959286Y-13166571D01*
X16968810Y-13147524D01*
X16978333Y-13138000D01*
X16997381Y-13128476D01*
X17149762Y-13328476D02*
X17149762Y-13195143D01*
X17149762Y-13214190D02*
X17159286Y-13204667D01*
X17178333Y-13195143D01*
X17206905Y-13195143D01*
X17225952Y-13204667D01*
X17235476Y-13223714D01*
X17235476Y-13328476D01*
X17235476Y-13223714D02*
X17245000Y-13204667D01*
X17264048Y-13195143D01*
X17292619Y-13195143D01*
X17311667Y-13204667D01*
X17321190Y-13223714D01*
X17321190Y-13328476D01*
X17416429Y-13328476D02*
X17416429Y-13195143D01*
X17416429Y-13214190D02*
X17425952Y-13204667D01*
X17445000Y-13195143D01*
X17473571Y-13195143D01*
X17492619Y-13204667D01*
X17502143Y-13223714D01*
X17502143Y-13328476D01*
X17502143Y-13223714D02*
X17511667Y-13204667D01*
X17530714Y-13195143D01*
X17559286Y-13195143D01*
X17578333Y-13204667D01*
X17587857Y-13223714D01*
X17587857Y-13328476D01*
X17978333Y-13118952D02*
X17806905Y-13376095D01*
X18235476Y-13128476D02*
X18254524Y-13128476D01*
X18273571Y-13138000D01*
X18283095Y-13147524D01*
X18292619Y-13166571D01*
X18302143Y-13204667D01*
X18302143Y-13252286D01*
X18292619Y-13290381D01*
X18283095Y-13309428D01*
X18273571Y-13318952D01*
X18254524Y-13328476D01*
X18235476Y-13328476D01*
X18216429Y-13318952D01*
X18206905Y-13309428D01*
X18197381Y-13290381D01*
X18187857Y-13252286D01*
X18187857Y-13204667D01*
X18197381Y-13166571D01*
X18206905Y-13147524D01*
X18216429Y-13138000D01*
X18235476Y-13128476D01*
X18387857Y-13309428D02*
X18397381Y-13318952D01*
X18387857Y-13328476D01*
X18378333Y-13318952D01*
X18387857Y-13309428D01*
X18387857Y-13328476D01*
X18521190Y-13128476D02*
X18540238Y-13128476D01*
X18559286Y-13138000D01*
X18568810Y-13147524D01*
X18578333Y-13166571D01*
X18587857Y-13204667D01*
X18587857Y-13252286D01*
X18578333Y-13290381D01*
X18568810Y-13309428D01*
X18559286Y-13318952D01*
X18540238Y-13328476D01*
X18521190Y-13328476D01*
X18502143Y-13318952D01*
X18492619Y-13309428D01*
X18483095Y-13290381D01*
X18473571Y-13252286D01*
X18473571Y-13204667D01*
X18483095Y-13166571D01*
X18492619Y-13147524D01*
X18502143Y-13138000D01*
X18521190Y-13128476D01*
X18768810Y-13128476D02*
X18673571Y-13128476D01*
X18664048Y-13223714D01*
X18673571Y-13214190D01*
X18692619Y-13204667D01*
X18740238Y-13204667D01*
X18759286Y-13214190D01*
X18768810Y-13223714D01*
X18778333Y-13242762D01*
X18778333Y-13290381D01*
X18768810Y-13309428D01*
X18759286Y-13318952D01*
X18740238Y-13328476D01*
X18692619Y-13328476D01*
X18673571Y-13318952D01*
X18664048Y-13309428D01*
X18968810Y-13328476D02*
X18854524Y-13328476D01*
X18911667Y-13328476D02*
X18911667Y-13128476D01*
X18892619Y-13157048D01*
X18873571Y-13176095D01*
X18854524Y-13185619D01*
X19045000Y-13147524D02*
X19054524Y-13138000D01*
X19073571Y-13128476D01*
X19121190Y-13128476D01*
X19140238Y-13138000D01*
X19149762Y-13147524D01*
X19159286Y-13166571D01*
X19159286Y-13185619D01*
X19149762Y-13214190D01*
X19035476Y-13328476D01*
X19159286Y-13328476D01*
X19235476Y-13128476D02*
X19235476Y-13166571D01*
X19311667Y-13128476D02*
X19311667Y-13166571D01*
X19606905Y-13404667D02*
X19597381Y-13395143D01*
X19578333Y-13366571D01*
X19568810Y-13347524D01*
X19559286Y-13318952D01*
X19549762Y-13271333D01*
X19549762Y-13233238D01*
X19559286Y-13185619D01*
X19568810Y-13157048D01*
X19578333Y-13138000D01*
X19597381Y-13109428D01*
X19606905Y-13099905D01*
X19664048Y-13128476D02*
X19797381Y-13128476D01*
X19711667Y-13328476D01*
X20025952Y-13328476D02*
X20025952Y-13128476D01*
X20111667Y-13328476D02*
X20111667Y-13223714D01*
X20102143Y-13204667D01*
X20083095Y-13195143D01*
X20054524Y-13195143D01*
X20035476Y-13204667D01*
X20025952Y-13214190D01*
X20235476Y-13328476D02*
X20216429Y-13318952D01*
X20206905Y-13309428D01*
X20197381Y-13290381D01*
X20197381Y-13233238D01*
X20206905Y-13214190D01*
X20216429Y-13204667D01*
X20235476Y-13195143D01*
X20264048Y-13195143D01*
X20283095Y-13204667D01*
X20292619Y-13214190D01*
X20302143Y-13233238D01*
X20302143Y-13290381D01*
X20292619Y-13309428D01*
X20283095Y-13318952D01*
X20264048Y-13328476D01*
X20235476Y-13328476D01*
X20416429Y-13328476D02*
X20397381Y-13318952D01*
X20387857Y-13299905D01*
X20387857Y-13128476D01*
X20568810Y-13318952D02*
X20549762Y-13328476D01*
X20511667Y-13328476D01*
X20492619Y-13318952D01*
X20483095Y-13299905D01*
X20483095Y-13223714D01*
X20492619Y-13204667D01*
X20511667Y-13195143D01*
X20549762Y-13195143D01*
X20568810Y-13204667D01*
X20578333Y-13223714D01*
X20578333Y-13242762D01*
X20483095Y-13261809D01*
X20654524Y-13318952D02*
X20673571Y-13328476D01*
X20711667Y-13328476D01*
X20730714Y-13318952D01*
X20740238Y-13299905D01*
X20740238Y-13290381D01*
X20730714Y-13271333D01*
X20711667Y-13261809D01*
X20683095Y-13261809D01*
X20664048Y-13252286D01*
X20654524Y-13233238D01*
X20654524Y-13223714D01*
X20664048Y-13204667D01*
X20683095Y-13195143D01*
X20711667Y-13195143D01*
X20730714Y-13204667D01*
X20806905Y-13404667D02*
X20816429Y-13395143D01*
X20835476Y-13366571D01*
X20845000Y-13347524D01*
X20854524Y-13318952D01*
X20864048Y-13271333D01*
X20864048Y-13233238D01*
X20854524Y-13185619D01*
X20845000Y-13157048D01*
X20835476Y-13138000D01*
X20816429Y-13109428D01*
X20806905Y-13099905D01*
M02*
