%FSLAX45Y45*%
G04 Gerber Fmt 4.5, Leading zero omitted, Abs format (unit mm)*
G04 Created by KiCad (PCBNEW 6.0.6) date 2022-07-14 17:34:40*
%MOMM*%
%LPD*%
G01*
G04 APERTURE LIST*
%TA.AperFunction,Profile*%
%ADD10C,0.100000*%
%TD*%
%ADD11C,0.200000*%
%ADD12C,0.320000*%
G04 APERTURE END LIST*
D10*
X16040000Y-9040000D02*
X20260000Y-9040000D01*
X20260000Y-9040000D02*
X20260000Y-12065000D01*
X20260000Y-12065000D02*
X16040000Y-12065000D01*
X16040000Y-12065000D02*
X16040000Y-9040000D01*
D11*
D12*
X16392500Y-9420000D02*
X16712500Y-9740000D01*
X16712500Y-9420000D02*
X16392500Y-9740000D01*
X17567500Y-10892500D02*
X17887500Y-11212500D01*
X17887500Y-10892500D02*
X17567500Y-11212500D01*
D11*
X16292619Y-12380476D02*
X16292619Y-12180476D01*
X16340238Y-12180476D01*
X16368809Y-12190000D01*
X16387857Y-12209048D01*
X16397381Y-12228095D01*
X16406905Y-12266190D01*
X16406905Y-12294762D01*
X16397381Y-12332857D01*
X16387857Y-12351905D01*
X16368809Y-12370952D01*
X16340238Y-12380476D01*
X16292619Y-12380476D01*
X16492619Y-12380476D02*
X16492619Y-12247143D01*
X16492619Y-12285238D02*
X16502143Y-12266190D01*
X16511667Y-12256667D01*
X16530714Y-12247143D01*
X16549762Y-12247143D01*
X16616428Y-12380476D02*
X16616428Y-12247143D01*
X16616428Y-12180476D02*
X16606905Y-12190000D01*
X16616428Y-12199524D01*
X16625952Y-12190000D01*
X16616428Y-12180476D01*
X16616428Y-12199524D01*
X16740238Y-12380476D02*
X16721190Y-12370952D01*
X16711667Y-12351905D01*
X16711667Y-12180476D01*
X16845000Y-12380476D02*
X16825952Y-12370952D01*
X16816429Y-12351905D01*
X16816429Y-12180476D01*
X17073571Y-12380476D02*
X17073571Y-12180476D01*
X17140238Y-12323333D01*
X17206905Y-12180476D01*
X17206905Y-12380476D01*
X17387857Y-12380476D02*
X17387857Y-12275714D01*
X17378333Y-12256667D01*
X17359286Y-12247143D01*
X17321190Y-12247143D01*
X17302143Y-12256667D01*
X17387857Y-12370952D02*
X17368810Y-12380476D01*
X17321190Y-12380476D01*
X17302143Y-12370952D01*
X17292619Y-12351905D01*
X17292619Y-12332857D01*
X17302143Y-12313809D01*
X17321190Y-12304286D01*
X17368810Y-12304286D01*
X17387857Y-12294762D01*
X17483095Y-12247143D02*
X17483095Y-12447143D01*
X17483095Y-12256667D02*
X17502143Y-12247143D01*
X17540238Y-12247143D01*
X17559286Y-12256667D01*
X17568810Y-12266190D01*
X17578333Y-12285238D01*
X17578333Y-12342381D01*
X17568810Y-12361428D01*
X17559286Y-12370952D01*
X17540238Y-12380476D01*
X17502143Y-12380476D01*
X17483095Y-12370952D01*
X17664048Y-12361428D02*
X17673571Y-12370952D01*
X17664048Y-12380476D01*
X17654524Y-12370952D01*
X17664048Y-12361428D01*
X17664048Y-12380476D01*
X17664048Y-12256667D02*
X17673571Y-12266190D01*
X17664048Y-12275714D01*
X17654524Y-12266190D01*
X17664048Y-12256667D01*
X17664048Y-12275714D01*
X15835000Y-12610000D02*
X16035000Y-12810000D01*
X16035000Y-12610000D02*
X15835000Y-12810000D01*
X16273571Y-12600476D02*
X16397381Y-12600476D01*
X16330714Y-12676667D01*
X16359286Y-12676667D01*
X16378333Y-12686190D01*
X16387857Y-12695714D01*
X16397381Y-12714762D01*
X16397381Y-12762381D01*
X16387857Y-12781428D01*
X16378333Y-12790952D01*
X16359286Y-12800476D01*
X16302143Y-12800476D01*
X16283095Y-12790952D01*
X16273571Y-12781428D01*
X16483095Y-12781428D02*
X16492619Y-12790952D01*
X16483095Y-12800476D01*
X16473571Y-12790952D01*
X16483095Y-12781428D01*
X16483095Y-12800476D01*
X16568809Y-12619524D02*
X16578333Y-12610000D01*
X16597381Y-12600476D01*
X16645000Y-12600476D01*
X16664048Y-12610000D01*
X16673571Y-12619524D01*
X16683095Y-12638571D01*
X16683095Y-12657619D01*
X16673571Y-12686190D01*
X16559286Y-12800476D01*
X16683095Y-12800476D01*
X16806905Y-12600476D02*
X16825952Y-12600476D01*
X16845000Y-12610000D01*
X16854524Y-12619524D01*
X16864048Y-12638571D01*
X16873571Y-12676667D01*
X16873571Y-12724286D01*
X16864048Y-12762381D01*
X16854524Y-12781428D01*
X16845000Y-12790952D01*
X16825952Y-12800476D01*
X16806905Y-12800476D01*
X16787857Y-12790952D01*
X16778333Y-12781428D01*
X16768809Y-12762381D01*
X16759286Y-12724286D01*
X16759286Y-12676667D01*
X16768809Y-12638571D01*
X16778333Y-12619524D01*
X16787857Y-12610000D01*
X16806905Y-12600476D01*
X16997381Y-12600476D02*
X17016429Y-12600476D01*
X17035476Y-12610000D01*
X17045000Y-12619524D01*
X17054524Y-12638571D01*
X17064048Y-12676667D01*
X17064048Y-12724286D01*
X17054524Y-12762381D01*
X17045000Y-12781428D01*
X17035476Y-12790952D01*
X17016429Y-12800476D01*
X16997381Y-12800476D01*
X16978333Y-12790952D01*
X16968810Y-12781428D01*
X16959286Y-12762381D01*
X16949762Y-12724286D01*
X16949762Y-12676667D01*
X16959286Y-12638571D01*
X16968810Y-12619524D01*
X16978333Y-12610000D01*
X16997381Y-12600476D01*
X17149762Y-12800476D02*
X17149762Y-12667143D01*
X17149762Y-12686190D02*
X17159286Y-12676667D01*
X17178333Y-12667143D01*
X17206905Y-12667143D01*
X17225952Y-12676667D01*
X17235476Y-12695714D01*
X17235476Y-12800476D01*
X17235476Y-12695714D02*
X17245000Y-12676667D01*
X17264048Y-12667143D01*
X17292619Y-12667143D01*
X17311667Y-12676667D01*
X17321190Y-12695714D01*
X17321190Y-12800476D01*
X17416429Y-12800476D02*
X17416429Y-12667143D01*
X17416429Y-12686190D02*
X17425952Y-12676667D01*
X17445000Y-12667143D01*
X17473571Y-12667143D01*
X17492619Y-12676667D01*
X17502143Y-12695714D01*
X17502143Y-12800476D01*
X17502143Y-12695714D02*
X17511667Y-12676667D01*
X17530714Y-12667143D01*
X17559286Y-12667143D01*
X17578333Y-12676667D01*
X17587857Y-12695714D01*
X17587857Y-12800476D01*
X17978333Y-12590952D02*
X17806905Y-12848095D01*
X18235476Y-12600476D02*
X18254524Y-12600476D01*
X18273571Y-12610000D01*
X18283095Y-12619524D01*
X18292619Y-12638571D01*
X18302143Y-12676667D01*
X18302143Y-12724286D01*
X18292619Y-12762381D01*
X18283095Y-12781428D01*
X18273571Y-12790952D01*
X18254524Y-12800476D01*
X18235476Y-12800476D01*
X18216429Y-12790952D01*
X18206905Y-12781428D01*
X18197381Y-12762381D01*
X18187857Y-12724286D01*
X18187857Y-12676667D01*
X18197381Y-12638571D01*
X18206905Y-12619524D01*
X18216429Y-12610000D01*
X18235476Y-12600476D01*
X18387857Y-12781428D02*
X18397381Y-12790952D01*
X18387857Y-12800476D01*
X18378333Y-12790952D01*
X18387857Y-12781428D01*
X18387857Y-12800476D01*
X18587857Y-12800476D02*
X18473571Y-12800476D01*
X18530714Y-12800476D02*
X18530714Y-12600476D01*
X18511667Y-12629048D01*
X18492619Y-12648095D01*
X18473571Y-12657619D01*
X18664048Y-12619524D02*
X18673571Y-12610000D01*
X18692619Y-12600476D01*
X18740238Y-12600476D01*
X18759286Y-12610000D01*
X18768810Y-12619524D01*
X18778333Y-12638571D01*
X18778333Y-12657619D01*
X18768810Y-12686190D01*
X18654524Y-12800476D01*
X18778333Y-12800476D01*
X18949762Y-12600476D02*
X18911667Y-12600476D01*
X18892619Y-12610000D01*
X18883095Y-12619524D01*
X18864048Y-12648095D01*
X18854524Y-12686190D01*
X18854524Y-12762381D01*
X18864048Y-12781428D01*
X18873571Y-12790952D01*
X18892619Y-12800476D01*
X18930714Y-12800476D01*
X18949762Y-12790952D01*
X18959286Y-12781428D01*
X18968810Y-12762381D01*
X18968810Y-12714762D01*
X18959286Y-12695714D01*
X18949762Y-12686190D01*
X18930714Y-12676667D01*
X18892619Y-12676667D01*
X18873571Y-12686190D01*
X18864048Y-12695714D01*
X18854524Y-12714762D01*
X19092619Y-12600476D02*
X19111667Y-12600476D01*
X19130714Y-12610000D01*
X19140238Y-12619524D01*
X19149762Y-12638571D01*
X19159286Y-12676667D01*
X19159286Y-12724286D01*
X19149762Y-12762381D01*
X19140238Y-12781428D01*
X19130714Y-12790952D01*
X19111667Y-12800476D01*
X19092619Y-12800476D01*
X19073571Y-12790952D01*
X19064048Y-12781428D01*
X19054524Y-12762381D01*
X19045000Y-12724286D01*
X19045000Y-12676667D01*
X19054524Y-12638571D01*
X19064048Y-12619524D01*
X19073571Y-12610000D01*
X19092619Y-12600476D01*
X19235476Y-12600476D02*
X19235476Y-12638571D01*
X19311667Y-12600476D02*
X19311667Y-12638571D01*
X19606905Y-12876667D02*
X19597381Y-12867143D01*
X19578333Y-12838571D01*
X19568810Y-12819524D01*
X19559286Y-12790952D01*
X19549762Y-12743333D01*
X19549762Y-12705238D01*
X19559286Y-12657619D01*
X19568810Y-12629048D01*
X19578333Y-12610000D01*
X19597381Y-12581428D01*
X19606905Y-12571905D01*
X19673571Y-12619524D02*
X19683095Y-12610000D01*
X19702143Y-12600476D01*
X19749762Y-12600476D01*
X19768810Y-12610000D01*
X19778333Y-12619524D01*
X19787857Y-12638571D01*
X19787857Y-12657619D01*
X19778333Y-12686190D01*
X19664048Y-12800476D01*
X19787857Y-12800476D01*
X20025952Y-12800476D02*
X20025952Y-12600476D01*
X20111667Y-12800476D02*
X20111667Y-12695714D01*
X20102143Y-12676667D01*
X20083095Y-12667143D01*
X20054524Y-12667143D01*
X20035476Y-12676667D01*
X20025952Y-12686190D01*
X20235476Y-12800476D02*
X20216429Y-12790952D01*
X20206905Y-12781428D01*
X20197381Y-12762381D01*
X20197381Y-12705238D01*
X20206905Y-12686190D01*
X20216429Y-12676667D01*
X20235476Y-12667143D01*
X20264048Y-12667143D01*
X20283095Y-12676667D01*
X20292619Y-12686190D01*
X20302143Y-12705238D01*
X20302143Y-12762381D01*
X20292619Y-12781428D01*
X20283095Y-12790952D01*
X20264048Y-12800476D01*
X20235476Y-12800476D01*
X20416429Y-12800476D02*
X20397381Y-12790952D01*
X20387857Y-12771905D01*
X20387857Y-12600476D01*
X20568810Y-12790952D02*
X20549762Y-12800476D01*
X20511667Y-12800476D01*
X20492619Y-12790952D01*
X20483095Y-12771905D01*
X20483095Y-12695714D01*
X20492619Y-12676667D01*
X20511667Y-12667143D01*
X20549762Y-12667143D01*
X20568810Y-12676667D01*
X20578333Y-12695714D01*
X20578333Y-12714762D01*
X20483095Y-12733809D01*
X20654524Y-12790952D02*
X20673571Y-12800476D01*
X20711667Y-12800476D01*
X20730714Y-12790952D01*
X20740238Y-12771905D01*
X20740238Y-12762381D01*
X20730714Y-12743333D01*
X20711667Y-12733809D01*
X20683095Y-12733809D01*
X20664048Y-12724286D01*
X20654524Y-12705238D01*
X20654524Y-12695714D01*
X20664048Y-12676667D01*
X20683095Y-12667143D01*
X20711667Y-12667143D01*
X20730714Y-12676667D01*
X20806905Y-12876667D02*
X20816429Y-12867143D01*
X20835476Y-12838571D01*
X20845000Y-12819524D01*
X20854524Y-12790952D01*
X20864048Y-12743333D01*
X20864048Y-12705238D01*
X20854524Y-12657619D01*
X20845000Y-12629048D01*
X20835476Y-12610000D01*
X20816429Y-12581428D01*
X20806905Y-12571905D01*
X21168810Y-12876667D02*
X21159286Y-12867143D01*
X21140238Y-12838571D01*
X21130714Y-12819524D01*
X21121190Y-12790952D01*
X21111667Y-12743333D01*
X21111667Y-12705238D01*
X21121190Y-12657619D01*
X21130714Y-12629048D01*
X21140238Y-12610000D01*
X21159286Y-12581428D01*
X21168810Y-12571905D01*
X21245000Y-12667143D02*
X21245000Y-12800476D01*
X21245000Y-12686190D02*
X21254524Y-12676667D01*
X21273571Y-12667143D01*
X21302143Y-12667143D01*
X21321190Y-12676667D01*
X21330714Y-12695714D01*
X21330714Y-12800476D01*
X21454524Y-12800476D02*
X21435476Y-12790952D01*
X21425952Y-12781428D01*
X21416429Y-12762381D01*
X21416429Y-12705238D01*
X21425952Y-12686190D01*
X21435476Y-12676667D01*
X21454524Y-12667143D01*
X21483095Y-12667143D01*
X21502143Y-12676667D01*
X21511667Y-12686190D01*
X21521190Y-12705238D01*
X21521190Y-12762381D01*
X21511667Y-12781428D01*
X21502143Y-12790952D01*
X21483095Y-12800476D01*
X21454524Y-12800476D01*
X21578333Y-12667143D02*
X21654524Y-12667143D01*
X21606905Y-12600476D02*
X21606905Y-12771905D01*
X21616429Y-12790952D01*
X21635476Y-12800476D01*
X21654524Y-12800476D01*
X21873571Y-12667143D02*
X21873571Y-12867143D01*
X21873571Y-12676667D02*
X21892619Y-12667143D01*
X21930714Y-12667143D01*
X21949762Y-12676667D01*
X21959286Y-12686190D01*
X21968810Y-12705238D01*
X21968810Y-12762381D01*
X21959286Y-12781428D01*
X21949762Y-12790952D01*
X21930714Y-12800476D01*
X21892619Y-12800476D01*
X21873571Y-12790952D01*
X22083095Y-12800476D02*
X22064048Y-12790952D01*
X22054524Y-12771905D01*
X22054524Y-12600476D01*
X22245000Y-12800476D02*
X22245000Y-12695714D01*
X22235476Y-12676667D01*
X22216429Y-12667143D01*
X22178333Y-12667143D01*
X22159286Y-12676667D01*
X22245000Y-12790952D02*
X22225952Y-12800476D01*
X22178333Y-12800476D01*
X22159286Y-12790952D01*
X22149762Y-12771905D01*
X22149762Y-12752857D01*
X22159286Y-12733809D01*
X22178333Y-12724286D01*
X22225952Y-12724286D01*
X22245000Y-12714762D01*
X22311667Y-12667143D02*
X22387857Y-12667143D01*
X22340238Y-12600476D02*
X22340238Y-12771905D01*
X22349762Y-12790952D01*
X22368810Y-12800476D01*
X22387857Y-12800476D01*
X22530714Y-12790952D02*
X22511667Y-12800476D01*
X22473571Y-12800476D01*
X22454524Y-12790952D01*
X22445000Y-12771905D01*
X22445000Y-12695714D01*
X22454524Y-12676667D01*
X22473571Y-12667143D01*
X22511667Y-12667143D01*
X22530714Y-12676667D01*
X22540238Y-12695714D01*
X22540238Y-12714762D01*
X22445000Y-12733809D01*
X22711667Y-12800476D02*
X22711667Y-12600476D01*
X22711667Y-12790952D02*
X22692619Y-12800476D01*
X22654524Y-12800476D01*
X22635476Y-12790952D01*
X22625952Y-12781428D01*
X22616428Y-12762381D01*
X22616428Y-12705238D01*
X22625952Y-12686190D01*
X22635476Y-12676667D01*
X22654524Y-12667143D01*
X22692619Y-12667143D01*
X22711667Y-12676667D01*
X22787857Y-12876667D02*
X22797381Y-12867143D01*
X22816428Y-12838571D01*
X22825952Y-12819524D01*
X22835476Y-12790952D01*
X22845000Y-12743333D01*
X22845000Y-12705238D01*
X22835476Y-12657619D01*
X22825952Y-12629048D01*
X22816428Y-12610000D01*
X22797381Y-12581428D01*
X22787857Y-12571905D01*
M02*
