G04 #@! TF.GenerationSoftware,KiCad,Pcbnew,6.0.6*
G04 #@! TF.CreationDate,2022-07-14T17:33:28+02:00*
G04 #@! TF.ProjectId,3D_power_meter,33445f70-6f77-4657-925f-6d657465722e,rev?*
G04 #@! TF.SameCoordinates,Original*
G04 #@! TF.FileFunction,Legend,Top*
G04 #@! TF.FilePolarity,Positive*
%FSLAX46Y46*%
G04 Gerber Fmt 4.6, Leading zero omitted, Abs format (unit mm)*
G04 Created by KiCad (PCBNEW 6.0.6) date 2022-07-14 17:33:28*
%MOMM*%
%LPD*%
G01*
G04 APERTURE LIST*
G04 Aperture macros list*
%AMRoundRect*
0 Rectangle with rounded corners*
0 $1 Rounding radius*
0 $2 $3 $4 $5 $6 $7 $8 $9 X,Y pos of 4 corners*
0 Add a 4 corners polygon primitive as box body*
4,1,4,$2,$3,$4,$5,$6,$7,$8,$9,$2,$3,0*
0 Add four circle primitives for the rounded corners*
1,1,$1+$1,$2,$3*
1,1,$1+$1,$4,$5*
1,1,$1+$1,$6,$7*
1,1,$1+$1,$8,$9*
0 Add four rect primitives between the rounded corners*
20,1,$1+$1,$2,$3,$4,$5,0*
20,1,$1+$1,$4,$5,$6,$7,0*
20,1,$1+$1,$6,$7,$8,$9,0*
20,1,$1+$1,$8,$9,$2,$3,0*%
G04 Aperture macros list end*
%ADD10C,0.150000*%
%ADD11C,0.120000*%
%ADD12C,3.200000*%
%ADD13R,1.700000X1.700000*%
%ADD14O,1.700000X1.700000*%
%ADD15RoundRect,0.237500X-0.300000X-0.237500X0.300000X-0.237500X0.300000X0.237500X-0.300000X0.237500X0*%
%ADD16RoundRect,0.237500X-0.237500X0.300000X-0.237500X-0.300000X0.237500X-0.300000X0.237500X0.300000X0*%
%ADD17RoundRect,0.250000X-0.650000X0.412500X-0.650000X-0.412500X0.650000X-0.412500X0.650000X0.412500X0*%
%ADD18C,3.000000*%
%ADD19R,2.600000X2.600000*%
%ADD20C,2.600000*%
%ADD21R,0.650000X1.560000*%
%ADD22RoundRect,0.150000X0.825000X0.150000X-0.825000X0.150000X-0.825000X-0.150000X0.825000X-0.150000X0*%
G04 APERTURE END LIST*
D10*
X186141666Y-112702380D02*
X186141666Y-113416666D01*
X186094047Y-113559523D01*
X185998809Y-113654761D01*
X185855952Y-113702380D01*
X185760714Y-113702380D01*
X187094047Y-113702380D02*
X186617857Y-113702380D01*
X186617857Y-112702380D01*
X187998809Y-113607142D02*
X187951190Y-113654761D01*
X187808333Y-113702380D01*
X187713095Y-113702380D01*
X187570238Y-113654761D01*
X187475000Y-113559523D01*
X187427380Y-113464285D01*
X187379761Y-113273809D01*
X187379761Y-113130952D01*
X187427380Y-112940476D01*
X187475000Y-112845238D01*
X187570238Y-112750000D01*
X187713095Y-112702380D01*
X187808333Y-112702380D01*
X187951190Y-112750000D01*
X187998809Y-112797619D01*
X188713095Y-112702380D02*
X188713095Y-113416666D01*
X188665476Y-113559523D01*
X188570238Y-113654761D01*
X188427380Y-113702380D01*
X188332142Y-113702380D01*
X189665476Y-113702380D02*
X189189285Y-113702380D01*
X189189285Y-112702380D01*
X190570238Y-113607142D02*
X190522619Y-113654761D01*
X190379761Y-113702380D01*
X190284523Y-113702380D01*
X190141666Y-113654761D01*
X190046428Y-113559523D01*
X189998809Y-113464285D01*
X189951190Y-113273809D01*
X189951190Y-113130952D01*
X189998809Y-112940476D01*
X190046428Y-112845238D01*
X190141666Y-112750000D01*
X190284523Y-112702380D01*
X190379761Y-112702380D01*
X190522619Y-112750000D01*
X190570238Y-112797619D01*
X191284523Y-112702380D02*
X191284523Y-113416666D01*
X191236904Y-113559523D01*
X191141666Y-113654761D01*
X190998809Y-113702380D01*
X190903571Y-113702380D01*
X192236904Y-113702380D02*
X191760714Y-113702380D01*
X191760714Y-112702380D01*
X193141666Y-113607142D02*
X193094047Y-113654761D01*
X192951190Y-113702380D01*
X192855952Y-113702380D01*
X192713095Y-113654761D01*
X192617857Y-113559523D01*
X192570238Y-113464285D01*
X192522619Y-113273809D01*
X192522619Y-113130952D01*
X192570238Y-112940476D01*
X192617857Y-112845238D01*
X192713095Y-112750000D01*
X192855952Y-112702380D01*
X192951190Y-112702380D01*
X193094047Y-112750000D01*
X193141666Y-112797619D01*
X164763095Y-92402380D02*
X164763095Y-91402380D01*
X164763095Y-91878571D02*
X165334523Y-91878571D01*
X165334523Y-92402380D02*
X165334523Y-91402380D01*
X165763095Y-91497619D02*
X165810714Y-91450000D01*
X165905952Y-91402380D01*
X166144047Y-91402380D01*
X166239285Y-91450000D01*
X166286904Y-91497619D01*
X166334523Y-91592857D01*
X166334523Y-91688095D01*
X166286904Y-91830952D01*
X165715476Y-92402380D01*
X166334523Y-92402380D01*
X170041666Y-114977380D02*
X170041666Y-115691666D01*
X169994047Y-115834523D01*
X169898809Y-115929761D01*
X169755952Y-115977380D01*
X169660714Y-115977380D01*
X170422619Y-114977380D02*
X171041666Y-114977380D01*
X170708333Y-115358333D01*
X170851190Y-115358333D01*
X170946428Y-115405952D01*
X170994047Y-115453571D01*
X171041666Y-115548809D01*
X171041666Y-115786904D01*
X170994047Y-115882142D01*
X170946428Y-115929761D01*
X170851190Y-115977380D01*
X170565476Y-115977380D01*
X170470238Y-115929761D01*
X170422619Y-115882142D01*
X170883333Y-102007142D02*
X170835714Y-102054761D01*
X170692857Y-102102380D01*
X170597619Y-102102380D01*
X170454761Y-102054761D01*
X170359523Y-101959523D01*
X170311904Y-101864285D01*
X170264285Y-101673809D01*
X170264285Y-101530952D01*
X170311904Y-101340476D01*
X170359523Y-101245238D01*
X170454761Y-101150000D01*
X170597619Y-101102380D01*
X170692857Y-101102380D01*
X170835714Y-101150000D01*
X170883333Y-101197619D01*
X171835714Y-102102380D02*
X171264285Y-102102380D01*
X171550000Y-102102380D02*
X171550000Y-101102380D01*
X171454761Y-101245238D01*
X171359523Y-101340476D01*
X171264285Y-101388095D01*
X169932142Y-107666666D02*
X169979761Y-107714285D01*
X170027380Y-107857142D01*
X170027380Y-107952380D01*
X169979761Y-108095238D01*
X169884523Y-108190476D01*
X169789285Y-108238095D01*
X169598809Y-108285714D01*
X169455952Y-108285714D01*
X169265476Y-108238095D01*
X169170238Y-108190476D01*
X169075000Y-108095238D01*
X169027380Y-107952380D01*
X169027380Y-107857142D01*
X169075000Y-107714285D01*
X169122619Y-107666666D01*
X169027380Y-107333333D02*
X169027380Y-106714285D01*
X169408333Y-107047619D01*
X169408333Y-106904761D01*
X169455952Y-106809523D01*
X169503571Y-106761904D01*
X169598809Y-106714285D01*
X169836904Y-106714285D01*
X169932142Y-106761904D01*
X169979761Y-106809523D01*
X170027380Y-106904761D01*
X170027380Y-107190476D01*
X169979761Y-107285714D01*
X169932142Y-107333333D01*
X173782142Y-109666666D02*
X173829761Y-109714285D01*
X173877380Y-109857142D01*
X173877380Y-109952380D01*
X173829761Y-110095238D01*
X173734523Y-110190476D01*
X173639285Y-110238095D01*
X173448809Y-110285714D01*
X173305952Y-110285714D01*
X173115476Y-110238095D01*
X173020238Y-110190476D01*
X172925000Y-110095238D01*
X172877380Y-109952380D01*
X172877380Y-109857142D01*
X172925000Y-109714285D01*
X172972619Y-109666666D01*
X172972619Y-109285714D02*
X172925000Y-109238095D01*
X172877380Y-109142857D01*
X172877380Y-108904761D01*
X172925000Y-108809523D01*
X172972619Y-108761904D01*
X173067857Y-108714285D01*
X173163095Y-108714285D01*
X173305952Y-108761904D01*
X173877380Y-109333333D01*
X173877380Y-108714285D01*
X163541666Y-114977380D02*
X163541666Y-115691666D01*
X163494047Y-115834523D01*
X163398809Y-115929761D01*
X163255952Y-115977380D01*
X163160714Y-115977380D01*
X164446428Y-115310714D02*
X164446428Y-115977380D01*
X164208333Y-114929761D02*
X163970238Y-115644047D01*
X164589285Y-115644047D01*
X176316666Y-115002380D02*
X176316666Y-115716666D01*
X176269047Y-115859523D01*
X176173809Y-115954761D01*
X176030952Y-116002380D01*
X175935714Y-116002380D01*
X176745238Y-115097619D02*
X176792857Y-115050000D01*
X176888095Y-115002380D01*
X177126190Y-115002380D01*
X177221428Y-115050000D01*
X177269047Y-115097619D01*
X177316666Y-115192857D01*
X177316666Y-115288095D01*
X177269047Y-115430952D01*
X176697619Y-116002380D01*
X177316666Y-116002380D01*
X191186904Y-119452380D02*
X191186904Y-118452380D01*
X191758333Y-119452380D02*
X191329761Y-118880952D01*
X191758333Y-118452380D02*
X191186904Y-119023809D01*
X192710714Y-119452380D02*
X192139285Y-119452380D01*
X192425000Y-119452380D02*
X192425000Y-118452380D01*
X192329761Y-118595238D01*
X192234523Y-118690476D01*
X192139285Y-118738095D01*
X190702380Y-96808333D02*
X191416666Y-96808333D01*
X191559523Y-96855952D01*
X191654761Y-96951190D01*
X191702380Y-97094047D01*
X191702380Y-97189285D01*
X191702380Y-95808333D02*
X191702380Y-96379761D01*
X191702380Y-96094047D02*
X190702380Y-96094047D01*
X190845238Y-96189285D01*
X190940476Y-96284523D01*
X190988095Y-96379761D01*
X176513095Y-107127380D02*
X176513095Y-106127380D01*
X176513095Y-106603571D02*
X177084523Y-106603571D01*
X177084523Y-107127380D02*
X177084523Y-106127380D01*
X178084523Y-107127380D02*
X177513095Y-107127380D01*
X177798809Y-107127380D02*
X177798809Y-106127380D01*
X177703571Y-106270238D01*
X177608333Y-106365476D01*
X177513095Y-106413095D01*
X162688095Y-110327380D02*
X162688095Y-111136904D01*
X162735714Y-111232142D01*
X162783333Y-111279761D01*
X162878571Y-111327380D01*
X163069047Y-111327380D01*
X163164285Y-111279761D01*
X163211904Y-111232142D01*
X163259523Y-111136904D01*
X163259523Y-110327380D01*
X163688095Y-110422619D02*
X163735714Y-110375000D01*
X163830952Y-110327380D01*
X164069047Y-110327380D01*
X164164285Y-110375000D01*
X164211904Y-110422619D01*
X164259523Y-110517857D01*
X164259523Y-110613095D01*
X164211904Y-110755952D01*
X163640476Y-111327380D01*
X164259523Y-111327380D01*
X174513095Y-94102380D02*
X174513095Y-94911904D01*
X174560714Y-95007142D01*
X174608333Y-95054761D01*
X174703571Y-95102380D01*
X174894047Y-95102380D01*
X174989285Y-95054761D01*
X175036904Y-95007142D01*
X175084523Y-94911904D01*
X175084523Y-94102380D01*
X176084523Y-95102380D02*
X175513095Y-95102380D01*
X175798809Y-95102380D02*
X175798809Y-94102380D01*
X175703571Y-94245238D01*
X175608333Y-94340476D01*
X175513095Y-94388095D01*
D11*
X163830000Y-116670000D02*
X161230000Y-116670000D01*
X161230000Y-116670000D02*
X161230000Y-119330000D01*
X166430000Y-116670000D02*
X166430000Y-118000000D01*
X163830000Y-119330000D02*
X161230000Y-119330000D01*
X163830000Y-116670000D02*
X163830000Y-119330000D01*
X165100000Y-116670000D02*
X166430000Y-116670000D01*
X173503733Y-101090000D02*
X173796267Y-101090000D01*
X173503733Y-102110000D02*
X173796267Y-102110000D01*
X169065000Y-110166233D02*
X169065000Y-110458767D01*
X170085000Y-110166233D02*
X170085000Y-110458767D01*
X172485000Y-108788748D02*
X172485000Y-110211252D01*
X170665000Y-108788748D02*
X170665000Y-110211252D01*
X167670000Y-119330000D02*
X167670000Y-118000000D01*
X170270000Y-119330000D02*
X172870000Y-119330000D01*
X172870000Y-119330000D02*
X172870000Y-116670000D01*
X170270000Y-116670000D02*
X172870000Y-116670000D01*
X170270000Y-119330000D02*
X170270000Y-116670000D01*
X169000000Y-119330000D02*
X167670000Y-119330000D01*
X174095000Y-119330000D02*
X174095000Y-118000000D01*
X179295000Y-119330000D02*
X179295000Y-116670000D01*
X176695000Y-119330000D02*
X179295000Y-119330000D01*
X175425000Y-119330000D02*
X174095000Y-119330000D01*
X176695000Y-119330000D02*
X176695000Y-116670000D01*
X176695000Y-116670000D02*
X179295000Y-116670000D01*
X196050000Y-108700000D02*
X196050000Y-111700000D01*
X190050000Y-106500000D02*
X196950000Y-106500000D01*
X201050000Y-117900000D02*
X201050000Y-111400000D01*
X191050000Y-108700000D02*
X196050000Y-111700000D01*
X195850000Y-104200000D02*
X193550000Y-104200000D01*
X193550000Y-116200000D02*
X195850000Y-116200000D01*
X181850000Y-117900000D02*
X181850000Y-102500000D01*
X185350000Y-105900000D02*
X185350000Y-108200000D01*
X201050000Y-109000000D02*
X201050000Y-102500000D01*
X188550000Y-110200000D02*
X184050000Y-112900000D01*
X201050000Y-117900000D02*
X181850000Y-117900000D01*
X193550000Y-108700000D02*
X193550000Y-104200000D01*
X181850000Y-102500000D02*
X201050000Y-102500000D01*
X190050000Y-110200000D02*
X190050000Y-106500000D01*
X196050000Y-111700000D02*
X191050000Y-111700000D01*
X191050000Y-111700000D02*
X191050000Y-108700000D01*
X193550000Y-116200000D02*
X193550000Y-111700000D01*
X185350000Y-114500000D02*
X185350000Y-112200000D01*
X190050000Y-110200000D02*
X188550000Y-110200000D01*
X196950000Y-110200000D02*
X197850000Y-110200000D01*
X196950000Y-110200000D02*
X196950000Y-106500000D01*
X191050000Y-108700000D02*
X196050000Y-108700000D01*
X191745000Y-91040000D02*
X191745000Y-91540000D01*
X198946000Y-91280000D02*
X198946000Y-101560000D01*
X192485000Y-91040000D02*
X191745000Y-91040000D01*
X201906000Y-91280000D02*
X201906000Y-101560000D01*
X192545000Y-91280000D02*
X192545000Y-101560000D01*
X201906000Y-91280000D02*
X191985000Y-91280000D01*
X197714000Y-100235000D02*
X197668000Y-100188000D01*
X195406000Y-97926000D02*
X195371000Y-97891000D01*
X194045000Y-91280000D02*
X194045000Y-101560000D01*
X191985000Y-91280000D02*
X191985000Y-101560000D01*
X195622000Y-97733000D02*
X195576000Y-97686000D01*
X201906000Y-101560000D02*
X191985000Y-101560000D01*
X197920000Y-100030000D02*
X197884000Y-99995000D01*
X197329000Y-92345000D02*
G75*
G03*
X195961958Y-92344573I-684001J-1534993D01*
G01*
X198180000Y-94564000D02*
G75*
G03*
X198180427Y-93196958I-1534993J684001D01*
G01*
X195961000Y-95415001D02*
G75*
G03*
X197328042Y-95415427I684000J1535001D01*
G01*
X194965000Y-93880000D02*
G75*
G03*
X195110244Y-94563318I1680000J0D01*
G01*
X195110000Y-93196000D02*
G75*
G03*
X194964747Y-93908805I1535001J-683999D01*
G01*
X198325000Y-98960000D02*
G75*
G03*
X198325000Y-98960000I-1680000J0D01*
G01*
X167785000Y-111650000D02*
X167785000Y-109200000D01*
X164565000Y-109850000D02*
X164565000Y-111650000D01*
X175260000Y-100560000D02*
X173310000Y-100560000D01*
X175260000Y-95440000D02*
X173310000Y-95440000D01*
X175260000Y-100560000D02*
X178710000Y-100560000D01*
X175260000Y-95440000D02*
X177210000Y-95440000D01*
%LPC*%
D12*
X165525000Y-95800000D03*
D13*
X165100000Y-118000000D03*
D14*
X162560000Y-118000000D03*
D15*
X172787500Y-101600000D03*
X174512500Y-101600000D03*
D16*
X169575000Y-109450000D03*
X169575000Y-111175000D03*
D17*
X171575000Y-107937500D03*
X171575000Y-111062500D03*
D13*
X169000000Y-118000000D03*
D14*
X171540000Y-118000000D03*
D13*
X175425000Y-118000000D03*
D14*
X177965000Y-118000000D03*
D18*
X199550000Y-110200000D03*
X185350000Y-116200000D03*
X185350000Y-104200000D03*
X197550000Y-104200000D03*
X197550000Y-116200000D03*
D19*
X196645000Y-93880000D03*
D20*
X196645000Y-98960000D03*
D12*
X177275000Y-110525000D03*
D21*
X167125000Y-109400000D03*
X166175000Y-109400000D03*
X165225000Y-109400000D03*
X165225000Y-112100000D03*
X167125000Y-112100000D03*
D22*
X177735000Y-99905000D03*
X177735000Y-98635000D03*
X177735000Y-97365000D03*
X177735000Y-96095000D03*
X172785000Y-96095000D03*
X172785000Y-97365000D03*
X172785000Y-98635000D03*
X172785000Y-99905000D03*
M02*
